<svg width="228" height="58" viewBox="0 0 228 58" fill="none" xmlns="http://www.w3.org/2000/svg"><path d="M11.8932 12.9281H5.9466V7.14939H10.7337C11.3729 7.14939 11.8932 6.61786 11.8932 5.96493V1.07455H17.5499V7.14939C17.5499 10.3415 15.018 12.9281 11.8932 12.9281ZM5.9466 13.5204H0V19.2991H4.78714C5.42629 19.2991 5.9466 19.8306 5.9466 20.4835V25.3739H11.6033V19.2991C11.6033 16.1069 9.07135 13.5204 5.9466 13.5204ZM24.9459 13.2242C24.3067 13.2242 23.7864 12.6927 23.7864 12.0398V7.14939H18.1297V13.2242C18.1297 16.4164 20.6616 19.003 23.7864 19.003H29.733V13.2242H24.9459ZM12.1831 25.3739V31.4487H17.8398V26.5584C17.8398 25.9054 18.3601 25.3739 18.9993 25.3739H23.7864V19.5952H17.8398C14.715 19.5952 12.1831 22.1818 12.1831 25.3739Z" fill="#0FCB8C"></path><path d="M212.136 24.2108C212.227 25.6946 212.799 26.8908 213.854 27.7993C214.908 28.7077 216.475 29.162 218.554 29.162C220.452 29.162 221.763 28.8743 222.486 28.2989C223.209 27.6933 223.571 26.8151 223.571 25.6644C223.571 24.7256 223.284 23.9988 222.712 23.484C222.17 22.9389 221.311 22.5756 220.136 22.3939L214.532 21.5308C212.573 21.228 211.067 20.5466 210.012 19.4867C208.988 18.4269 208.475 17.0339 208.475 15.3078C208.475 13.1274 209.304 11.4165 210.961 10.1749C212.618 8.93332 214.923 8.31253 217.876 8.31253C220.738 8.31253 223.043 8.97874 224.791 10.3112C226.538 11.6133 227.487 13.3546 227.638 15.5349H223.119C222.998 14.4144 222.486 13.4908 221.582 12.764C220.678 12.0373 219.398 11.6739 217.74 11.6739C216.083 11.6739 214.848 11.9767 214.034 12.5824C213.251 13.1577 212.859 13.9299 212.859 14.899C212.859 15.656 213.085 16.2768 213.537 16.7613C214.019 17.2458 214.833 17.579 215.978 17.7606L220.859 18.4874C223.51 18.8811 225.363 19.6684 226.418 20.8495C227.472 22.0002 228 23.5294 228 25.4372C228 27.7993 227.216 29.5708 225.65 30.7518C224.083 31.9328 221.672 32.5233 218.418 32.5233C214.863 32.5233 212.227 31.7663 210.509 30.2521C208.792 28.7077 207.933 26.694 207.933 24.2108H212.136Z" fill="#0FCB8C"></path><path d="M194.238 8.35795C197.703 8.35795 200.324 9.49354 202.102 11.7647C203.88 14.0056 204.768 16.8976 204.768 20.4406C204.768 23.9837 203.88 26.8908 202.102 29.162C200.324 31.4029 197.703 32.5233 194.238 32.5233C190.261 32.5233 187.474 30.9789 185.877 27.8901V31.7965H181.357V0H185.877V12.9912C187.474 9.90235 190.261 8.35795 194.238 8.35795ZM193.289 11.9918C188.348 11.9918 185.877 14.8081 185.877 20.4406C185.877 26.0732 188.348 28.8894 193.289 28.8894C195.76 28.8894 197.522 28.2081 198.577 26.8454C199.661 25.4524 200.204 23.3175 200.204 20.4406C200.204 17.5638 199.661 15.444 198.577 14.0813C197.522 12.6883 195.76 11.9918 193.289 11.9918Z" fill="#0FCB8C"></path><path d="M163.362 32.3871C161.042 32.3871 159.204 31.7965 157.848 30.6155C156.522 29.4345 155.859 27.7993 155.859 25.7098C155.859 23.8323 156.387 22.3333 157.441 21.2128C158.526 20.0621 160.288 19.2748 162.729 18.8508L168.378 17.8969C169.493 17.7152 170.292 17.4275 170.774 17.0339C171.286 16.6402 171.542 16.0497 171.542 15.2623C171.542 14.1419 171.165 13.294 170.412 12.7186C169.689 12.113 168.409 11.8101 166.571 11.8101C164.733 11.8101 163.347 12.1735 162.413 12.9003C161.509 13.6271 160.997 14.7173 160.876 16.1708H156.357C156.387 13.7179 157.275 11.795 159.023 10.402C160.771 9.00903 163.226 8.31253 166.39 8.31253C169.433 8.31253 171.738 8.94846 173.305 10.2203C174.902 11.4922 175.7 13.2031 175.7 15.3532V26.6183C175.7 28.2838 175.775 30.0099 175.926 31.7965H171.813C171.632 30.0099 171.542 28.2989 171.542 26.6637C171.03 28.2989 170.096 29.6616 168.74 30.7518C167.384 31.842 165.591 32.3871 163.362 32.3871ZM164.311 28.8894C166.601 28.8894 168.378 28.1324 169.644 26.6183C170.909 25.0739 171.542 23.1206 171.542 20.7586V19.3959C171 19.7896 170.412 20.1075 169.779 20.3498C169.147 20.5618 168.393 20.7737 167.52 20.9857L164.401 21.7125C162.985 22.0456 161.961 22.515 161.328 23.1206C160.695 23.696 160.379 24.4985 160.379 25.5281C160.379 26.588 160.725 27.4207 161.418 28.0264C162.141 28.6018 163.106 28.8894 164.311 28.8894Z" fill="#0FCB8C"></path><path d="M133.73 1.58984H138.385V28.0264H153.616V31.7966H133.73V1.58984Z" fill="#0FCB8C"></path><path d="M115.96 32.3871C113.64 32.3871 111.802 31.7965 110.446 30.6155C109.12 29.4345 108.458 27.7993 108.458 25.7098C108.458 23.8323 108.985 22.3333 110.039 21.2128C111.124 20.0621 112.887 19.2748 115.327 18.8508L120.977 17.8969C122.091 17.7152 122.89 17.4275 123.372 17.0339C123.884 16.6402 124.14 16.0497 124.14 15.2623C124.14 14.1419 123.764 13.294 123.01 12.7186C122.287 12.113 121.007 11.8101 119.169 11.8101C117.331 11.8101 115.945 12.1735 115.011 12.9003C114.107 13.6271 113.595 14.7173 113.474 16.1708H108.955C108.985 13.7179 109.874 11.795 111.621 10.402C113.369 9.00903 115.824 8.31253 118.988 8.31253C122.031 8.31253 124.336 8.94846 125.903 10.2203C127.5 11.4922 128.298 13.2031 128.298 15.3532V26.6183C128.298 28.2838 128.373 30.0099 128.524 31.7965H124.411C124.231 30.0099 124.14 28.2989 124.14 26.6637C123.628 28.2989 122.694 29.6616 121.338 30.7518C119.982 31.842 118.19 32.3871 115.96 32.3871ZM116.909 28.8894C119.199 28.8894 120.977 28.1324 122.242 26.6183C123.507 25.0739 124.14 23.1206 124.14 20.7586V19.3959C123.598 19.7896 123.01 20.1075 122.378 20.3498C121.745 20.5618 120.992 20.7737 120.118 20.9857L116.999 21.7125C115.583 22.0456 114.559 22.515 113.926 23.1206C113.293 23.696 112.977 24.4985 112.977 25.5281C112.977 26.588 113.324 27.4207 114.017 28.0264C114.74 28.6018 115.704 28.8894 116.909 28.8894Z" fill="#0FCB8C"></path><path d="M100.384 31.7966C98.5758 31.7966 97.1747 31.5694 96.1805 31.1152C95.2163 30.6307 94.5384 29.919 94.1467 28.9803C93.755 28.0113 93.5591 26.7243 93.5591 25.1193V12.5824H89.2656V10.2203L93.9659 8.58508L95.8189 3.95187H98.0786V9.08474H105.31V12.5824H98.0786V28.1627H104.858V31.7966H100.384Z" fill="#0FCB8C"></path><path d="M71.4756 24.2108C71.566 25.6946 72.1385 26.8908 73.193 27.7993C74.2476 28.7077 75.8143 29.162 77.8933 29.162C79.7915 29.162 81.1021 28.8743 81.8252 28.2989C82.5484 27.6933 82.9099 26.8151 82.9099 25.6644C82.9099 24.7256 82.6237 23.9988 82.0512 23.484C81.5089 22.9389 80.6502 22.5756 79.4751 22.3939L73.8709 21.5308C71.9125 21.228 70.406 20.5466 69.3514 19.4867C68.327 18.4269 67.8148 17.0339 67.8148 15.3078C67.8148 13.1274 68.6434 11.4165 70.3005 10.1749C71.9577 8.93332 74.2626 8.31253 77.2154 8.31253C80.0777 8.31253 82.3826 8.97874 84.1302 10.3112C85.8777 11.6133 86.8268 13.3546 86.9775 15.5349H82.458C82.3375 14.4144 81.8252 13.4908 80.9213 12.764C80.0174 12.0373 78.7369 11.6739 77.0798 11.6739C75.4226 11.6739 74.1873 11.9767 73.3738 12.5824C72.5904 13.1577 72.1987 13.9299 72.1987 14.899C72.1987 15.656 72.4247 16.2768 72.8766 16.7613C73.3587 17.2458 74.1722 17.579 75.3172 17.7606L80.1982 18.4874C82.8497 18.8811 84.7027 19.6684 85.7572 20.8495C86.8118 22.0002 87.339 23.5294 87.339 25.4372C87.339 27.7993 86.5556 29.5708 84.9889 30.7518C83.4221 31.9328 81.0117 32.5233 77.7577 32.5233C74.2024 32.5233 71.566 31.7663 69.8486 30.2521C68.1312 28.7077 67.2725 26.694 67.2725 24.2108H71.4756Z" fill="#0FCB8C"></path><path d="M60.5411 31.7966L57.8746 24.6196H43.3219L40.6554 31.7966H35.9551L47.1182 1.58984H54.1235L65.2866 31.7966H60.5411ZM44.7229 20.8495H56.4736L50.5983 4.90577L44.7229 20.8495Z" fill="#0FCB8C"></path><path d="M222.172 58L223.772 53.6282L223.795 54.9212L220.181 45.9929H221.613L224.446 53.174H223.956L226.614 45.9929H228L223.497 58H222.172Z" fill="#0FCB8C"></path><path d="M215.459 54.3055V45.9929H216.677V48.0018L216.478 47.7401C216.575 47.4835 216.7 47.2475 216.853 47.032C217.011 46.8164 217.187 46.6394 217.381 46.5009C217.596 46.3264 217.838 46.193 218.109 46.1006C218.379 46.0083 218.655 45.9544 218.936 45.939C219.217 45.9185 219.48 45.9364 219.725 45.9929V47.2783C219.439 47.2013 219.125 47.1808 218.783 47.2167C218.441 47.2526 218.124 47.3783 217.833 47.5938C217.568 47.7837 217.361 48.0146 217.213 48.2865C217.07 48.5585 216.97 48.8535 216.914 49.1717C216.858 49.4847 216.83 49.8054 216.83 50.1338V54.3055H215.459Z" fill="#0FCB8C"></path><path d="M209.994 54.5364C209.182 54.5364 208.473 54.3568 207.865 53.9976C207.263 53.6333 206.793 53.1279 206.456 52.4813C206.119 51.8297 205.951 51.0702 205.951 50.2031C205.951 49.2948 206.117 48.5097 206.448 47.8478C206.78 47.1808 207.242 46.6676 207.835 46.3084C208.432 45.9441 209.131 45.762 209.933 45.762C210.765 45.762 211.472 45.9544 212.054 46.3392C212.641 46.7241 213.08 47.2731 213.371 47.9864C213.668 48.6996 213.795 49.5488 213.754 50.534H212.376V50.0414C212.361 49.0203 212.154 48.2583 211.756 47.7555C211.357 47.2475 210.765 46.9935 209.979 46.9935C209.136 46.9935 208.496 47.2654 208.057 47.8093C207.618 48.3532 207.398 49.1332 207.398 50.1492C207.398 51.1293 207.618 51.8887 208.057 52.4275C208.496 52.9662 209.121 53.2356 209.933 53.2356C210.479 53.2356 210.954 53.1099 211.357 52.8585C211.761 52.6071 212.077 52.2453 212.307 51.7732L213.616 52.2273C213.295 52.9611 212.81 53.5307 212.161 53.936C211.518 54.3363 210.796 54.5364 209.994 54.5364ZM206.939 50.534V49.4334H213.05V50.534H206.939Z" fill="#0FCB8C"></path><path d="M200.928 54.3055L197.926 45.9929H199.305L201.625 52.5583L203.938 45.9929H205.324L202.322 54.3055H200.928Z" fill="#0FCB8C"></path><path d="M193.315 54.5364C192.493 54.5364 191.784 54.3491 191.186 53.9745C190.594 53.6 190.137 53.0817 189.815 52.4198C189.494 51.7578 189.333 50.9984 189.333 50.1415C189.333 49.2692 189.496 48.5046 189.823 47.8478C190.15 47.191 190.612 46.6805 191.209 46.3161C191.807 45.9467 192.509 45.762 193.315 45.762C194.142 45.762 194.855 45.9493 195.452 46.3238C196.049 46.6933 196.506 47.209 196.823 47.8709C197.144 48.5277 197.305 49.2846 197.305 50.1415C197.305 51.0087 197.144 51.7732 196.823 52.4352C196.501 53.092 196.042 53.6076 195.444 53.9822C194.847 54.3517 194.137 54.5364 193.315 54.5364ZM193.315 53.2356C194.173 53.2356 194.811 52.9483 195.23 52.3736C195.648 51.7989 195.858 51.0549 195.858 50.1415C195.858 49.2025 195.646 48.4559 195.222 47.9017C194.798 47.3424 194.163 47.0627 193.315 47.0627C192.738 47.0627 192.264 47.1936 191.891 47.4553C191.518 47.717 191.24 48.0787 191.056 48.5405C190.872 49.0023 190.78 49.536 190.78 50.1415C190.78 51.0754 190.995 51.8245 191.424 52.389C191.853 52.9534 192.483 53.2356 193.315 53.2356Z" fill="#0FCB8C"></path><path d="M184.916 54.5364C184.078 54.5364 183.366 54.3491 182.779 53.9745C182.197 53.5948 181.753 53.074 181.446 52.4121C181.14 51.7501 180.982 50.9958 180.972 50.1492C180.982 49.282 181.143 48.52 181.454 47.8632C181.771 47.2013 182.223 46.6856 182.81 46.3161C183.397 45.9467 184.104 45.762 184.931 45.762C185.804 45.762 186.554 45.9775 187.182 46.4085C187.816 46.8395 188.239 47.4296 188.454 48.1788L187.106 48.5867C186.932 48.1044 186.649 47.7298 186.256 47.463C185.868 47.1961 185.421 47.0627 184.916 47.0627C184.349 47.0627 183.882 47.1961 183.514 47.463C183.147 47.7247 182.873 48.089 182.695 48.5559C182.516 49.0177 182.424 49.5488 182.419 50.1492C182.429 51.0728 182.641 51.8194 183.055 52.389C183.473 52.9534 184.094 53.2356 184.916 53.2356C185.457 53.2356 185.906 53.1125 186.263 52.8662C186.621 52.6148 186.891 52.253 187.075 51.7809L188.454 52.1427C188.168 52.9175 187.721 53.5102 187.114 53.9207C186.506 54.3312 185.773 54.5364 184.916 54.5364Z" fill="#0FCB8C"></path><path d="M176.434 54.5287C175.449 54.5287 174.64 54.3132 174.006 53.8822C173.379 53.446 172.993 52.838 172.85 52.058L174.244 51.8348C174.356 52.2864 174.614 52.6455 175.017 52.9124C175.421 53.1741 175.921 53.3049 176.518 53.3049C177.085 53.3049 177.529 53.1869 177.851 52.9508C178.173 52.7148 178.333 52.3941 178.333 51.9887C178.333 51.7527 178.28 51.5628 178.173 51.4192C178.065 51.2704 177.843 51.1318 177.506 51.0035C177.174 50.8753 176.672 50.7213 175.998 50.5417C175.268 50.3467 174.693 50.1441 174.275 49.9337C173.856 49.7233 173.557 49.4796 173.379 49.2025C173.2 48.9254 173.11 48.5893 173.11 48.1942C173.11 47.7067 173.243 47.2808 173.509 46.9165C173.774 46.547 174.144 46.2623 174.619 46.0621C175.099 45.862 175.656 45.762 176.289 45.762C176.917 45.762 177.478 45.862 177.973 46.0621C178.469 46.2623 178.867 46.547 179.168 46.9165C179.474 47.2808 179.656 47.7067 179.712 48.1942L178.318 48.4482C178.252 48.0018 178.037 47.6503 177.675 47.3937C177.317 47.1371 176.855 47.0012 176.289 46.9858C175.753 46.9652 175.316 47.0602 174.979 47.2706C174.647 47.4809 174.481 47.7657 174.481 48.1249C174.481 48.325 174.543 48.4969 174.665 48.6406C174.793 48.7843 175.025 48.9202 175.362 49.0485C175.704 49.1768 176.199 49.3231 176.848 49.4873C177.578 49.672 178.152 49.8747 178.571 50.0953C178.994 50.3108 179.296 50.5674 179.474 50.865C179.653 51.1575 179.742 51.5192 179.742 51.9503C179.742 52.7507 179.449 53.3819 178.862 53.8437C178.275 54.3004 177.465 54.5287 176.434 54.5287Z" fill="#0FCB8C"></path><path d="M169.648 44.5228V43.1066H171.012V44.5228H169.648ZM169.648 54.3055V45.9929H171.012V54.3055H169.648Z" fill="#0FCB8C"></path><path d="M159.07 54.3055V43.222H162.471C162.583 43.222 162.779 43.2246 163.06 43.2297C163.341 43.2348 163.609 43.2553 163.864 43.2913C164.717 43.4041 165.429 43.7172 166.001 44.2303C166.578 44.7383 167.012 45.3848 167.303 46.1699C167.594 46.955 167.739 47.8196 167.739 48.7637C167.739 49.7079 167.594 50.5725 167.303 51.3576C167.012 52.1427 166.578 52.7918 166.001 53.3049C165.429 53.8129 164.717 54.1233 163.864 54.2362C163.609 54.267 163.338 54.2875 163.053 54.2978C162.772 54.3029 162.578 54.3055 162.471 54.3055H159.07ZM160.472 52.997H162.471C162.665 52.997 162.882 52.9919 163.121 52.9816C163.361 52.9662 163.571 52.9431 163.749 52.9124C164.352 52.7995 164.839 52.5455 165.212 52.1504C165.585 51.7553 165.858 51.2627 166.032 50.6726C166.205 50.0825 166.292 49.4462 166.292 48.7637C166.292 48.0659 166.203 47.4219 166.024 46.8318C165.85 46.2417 165.577 45.7517 165.204 45.3617C164.832 44.9717 164.347 44.7229 163.749 44.6151C163.571 44.5792 163.359 44.5561 163.114 44.5458C162.869 44.5356 162.654 44.5305 162.471 44.5305H160.472V52.997Z" fill="#0FCB8C"></path><path d="M153.394 54.5364C152.572 54.5364 151.863 54.3491 151.265 53.9745C150.673 53.6 150.216 53.0817 149.895 52.4198C149.573 51.7578 149.412 50.9984 149.412 50.1415C149.412 49.2692 149.575 48.5046 149.902 47.8478C150.229 47.191 150.691 46.6805 151.288 46.3161C151.886 45.9467 152.588 45.762 153.394 45.762C154.221 45.762 154.934 45.9493 155.531 46.3238C156.128 46.6933 156.585 47.209 156.902 47.8709C157.223 48.5277 157.384 49.2846 157.384 50.1415C157.384 51.0087 157.223 51.7732 156.902 52.4352C156.58 53.092 156.121 53.6076 155.523 53.9822C154.926 54.3517 154.216 54.5364 153.394 54.5364ZM153.394 53.2356C154.252 53.2356 154.89 52.9483 155.309 52.3736C155.728 51.7989 155.937 51.0549 155.937 50.1415C155.937 49.2025 155.725 48.4559 155.301 47.9017C154.877 47.3424 154.242 47.0627 153.394 47.0627C152.817 47.0627 152.343 47.1936 151.97 47.4553C151.597 47.717 151.319 48.0787 151.135 48.5405C150.951 49.0023 150.859 49.536 150.859 50.1415C150.859 51.0754 151.074 51.8245 151.503 52.389C151.932 52.9534 152.562 53.2356 153.394 53.2356Z" fill="#0FCB8C"></path><path d="M148.536 54.3055C148.046 54.403 147.561 54.4415 147.081 54.421C146.606 54.4056 146.183 54.3107 145.81 54.1362C145.437 53.9566 145.154 53.6795 144.96 53.3049C144.797 52.9765 144.707 52.6456 144.692 52.312C144.682 51.9734 144.677 51.5911 144.677 51.1652V43.6838H146.04V51.1036C146.04 51.4423 146.042 51.7322 146.047 51.9734C146.058 52.2145 146.111 52.4224 146.208 52.5968C146.392 52.9252 146.683 53.1176 147.081 53.1741C147.485 53.2305 147.97 53.2151 148.536 53.1279V54.3055ZM143 47.1243V45.9929H148.536V47.1243H143Z" fill="#0FCB8C"></path><path d="M137.8 54.521C137.269 54.521 136.812 54.4363 136.429 54.267C136.051 54.0977 135.737 53.8719 135.487 53.5897C135.237 53.3075 135.04 52.9945 134.897 52.6507C134.754 52.3069 134.652 51.9554 134.591 51.5962C134.535 51.237 134.507 50.9009 134.507 50.5879V45.9929H135.885V50.1569C135.885 50.5468 135.921 50.924 135.993 51.2883C136.064 51.6526 136.184 51.981 136.352 52.2735C136.526 52.566 136.756 52.7969 137.042 52.9662C137.333 53.1356 137.695 53.2202 138.129 53.2202C138.471 53.2202 138.783 53.1612 139.063 53.0432C139.344 52.9252 139.584 52.7507 139.783 52.5198C139.982 52.2838 140.136 51.9862 140.243 51.627C140.35 51.2678 140.404 50.8496 140.404 50.3724L141.3 50.6495C141.3 51.4499 141.154 52.1401 140.863 52.7199C140.577 53.2998 140.171 53.7462 139.645 54.0592C139.125 54.3671 138.509 54.521 137.8 54.521ZM140.557 54.3055V52.0811H140.404V45.9929H141.774V54.3055H140.557Z" fill="#0FCB8C"></path><path d="M124.007 54.3055L127.699 43.222H129.598L133.289 54.3055H131.872L128.418 44.0225H128.847L125.424 54.3055H124.007ZM125.784 51.7116V50.4263H131.512V51.7116H125.784Z" fill="#0FCB8C"></path></svg>
