<svg id="my-svg" width="100%" xmlns="http://www.w3.org/2000/svg" xmlns:xlink="http://www.w3.org/1999/xlink" class="flowchart" style="max-width: 769.234px; background-color: white;" viewBox="0 0 769.234375 911" role="graphics-document document" aria-roledescription="flowchart-v2"><style>#my-svg{font-family:"trebuchet ms",verdana,arial,sans-serif;font-size:16px;fill:#333;}@keyframes edge-animation-frame{from{stroke-dashoffset:0;}}@keyframes dash{to{stroke-dashoffset:0;}}#my-svg .edge-animation-slow{stroke-dasharray:9,5!important;stroke-dashoffset:900;animation:dash 50s linear infinite;stroke-linecap:round;}#my-svg .edge-animation-fast{stroke-dasharray:9,5!important;stroke-dashoffset:900;animation:dash 20s linear infinite;stroke-linecap:round;}#my-svg .error-icon{fill:#552222;}#my-svg .error-text{fill:#552222;stroke:#552222;}#my-svg .edge-thickness-normal{stroke-width:1px;}#my-svg .edge-thickness-thick{stroke-width:3.5px;}#my-svg .edge-pattern-solid{stroke-dasharray:0;}#my-svg .edge-thickness-invisible{stroke-width:0;fill:none;}#my-svg .edge-pattern-dashed{stroke-dasharray:3;}#my-svg .edge-pattern-dotted{stroke-dasharray:2;}#my-svg .marker{fill:#333333;stroke:#333333;}#my-svg .marker.cross{stroke:#333333;}#my-svg svg{font-family:"trebuchet ms",verdana,arial,sans-serif;font-size:16px;}#my-svg p{margin:0;}#my-svg .label{font-family:"trebuchet ms",verdana,arial,sans-serif;color:#333;}#my-svg .cluster-label text{fill:#333;}#my-svg .cluster-label span{color:#333;}#my-svg .cluster-label span p{background-color:transparent;}#my-svg .label text,#my-svg span{fill:#333;color:#333;}#my-svg .node rect,#my-svg .node circle,#my-svg .node ellipse,#my-svg .node polygon,#my-svg .node path{fill:#ECECFF;stroke:#9370DB;stroke-width:1px;}#my-svg .rough-node .label text,#my-svg .node .label text,#my-svg .image-shape .label,#my-svg .icon-shape .label{text-anchor:middle;}#my-svg .node .katex path{fill:#000;stroke:#000;stroke-width:1px;}#my-svg .rough-node .label,#my-svg .node .label,#my-svg .image-shape .label,#my-svg .icon-shape .label{text-align:center;}#my-svg .node.clickable{cursor:pointer;}#my-svg .root .anchor path{fill:#333333!important;stroke-width:0;stroke:#333333;}#my-svg .arrowheadPath{fill:#333333;}#my-svg .edgePath .path{stroke:#333333;stroke-width:1px;}#my-svg .flowchart-link{stroke:#333333;fill:none;}#my-svg .edgeLabel{background-color:rgba(232,232,232, 0.8);text-align:center;}#my-svg .edgeLabel p{background-color:rgba(232,232,232, 0.8);}#my-svg .edgeLabel rect{opacity:0.5;background-color:rgba(232,232,232, 0.8);fill:rgba(232,232,232, 0.8);}#my-svg .labelBkg{background-color:rgba(232, 232, 232, 0.5);}#my-svg .cluster rect{fill:#ffffde;stroke:#aaaa33;stroke-width:1px;}#my-svg .cluster text{fill:#333;}#my-svg .cluster span{color:#333;}#my-svg div.mermaidTooltip{position:absolute;text-align:center;max-width:200px;padding:2px;font-family:"trebuchet ms",verdana,arial,sans-serif;font-size:12px;background:hsl(80, 100%, 96.2745098039%);border:1px solid #aaaa33;border-radius:2px;pointer-events:none;z-index:100;}#my-svg .flowchartTitleText{text-anchor:middle;font-size:18px;fill:#333;}#my-svg rect.text{fill:none;stroke-width:0;}#my-svg .icon-shape,#my-svg .image-shape{background-color:rgba(232,232,232, 0.8);text-align:center;}#my-svg .icon-shape p,#my-svg .image-shape p{background-color:rgba(232,232,232, 0.8);padding:2px;}#my-svg .icon-shape .label rect,#my-svg .image-shape .label rect{opacity:0.5;background-color:rgba(232,232,232, 0.8);fill:rgba(232,232,232, 0.8);}#my-svg .label-icon{display:inline-block;height:1em;overflow:visible;vertical-align:-0.125em;}#my-svg .node .label-icon path{fill:currentColor;stroke:revert;stroke-width:revert;}#my-svg .node .neo-node{stroke:#9370DB;}#my-svg [data-look="neo"].node rect,#my-svg [data-look="neo"].cluster rect,#my-svg [data-look="neo"].node polygon{stroke:#9370DB;filter:drop-shadow(1px 2px 2px rgba(185, 185, 185, 1));}#my-svg [data-look="neo"].node path{stroke:#9370DB;stroke-width:1px;}#my-svg [data-look="neo"].node .outer-path{filter:drop-shadow(1px 2px 2px rgba(185, 185, 185, 1));}#my-svg [data-look="neo"].node .neo-line path{stroke:#9370DB;filter:none;}#my-svg [data-look="neo"].node circle{stroke:#9370DB;filter:drop-shadow(1px 2px 2px rgba(185, 185, 185, 1));}#my-svg [data-look="neo"].node circle .state-start{fill:#000000;}#my-svg [data-look="neo"].icon-shape .icon{fill:#9370DB;filter:drop-shadow(1px 2px 2px rgba(185, 185, 185, 1));}#my-svg [data-look="neo"].icon-shape .icon-neo path{stroke:#9370DB;filter:drop-shadow(1px 2px 2px rgba(185, 185, 185, 1));}#my-svg :root{--mermaid-font-family:"trebuchet ms",verdana,arial,sans-serif;}#my-svg .io&gt;*{fill:rgb(31, 45, 61)!important;stroke:rgb(110, 231, 183)!important;color:rgb(255, 255, 255)!important;}#my-svg .io span{fill:rgb(31, 45, 61)!important;stroke:rgb(110, 231, 183)!important;color:rgb(255, 255, 255)!important;}#my-svg .io tspan{fill:rgb(255, 255, 255)!important;}</style><g><marker id="my-svg_flowchart-v2-pointEnd" class="marker flowchart-v2" viewBox="0 0 10 10" refX="5" refY="5" markerUnits="userSpaceOnUse" markerWidth="8" markerHeight="8" orient="auto"><path d="M 0 0 L 10 5 L 0 10 z" class="arrowMarkerPath" style="stroke-width: 1; stroke-dasharray: 1, 0;"/></marker><marker id="my-svg_flowchart-v2-pointStart" class="marker flowchart-v2" viewBox="0 0 10 10" refX="4.5" refY="5" markerUnits="userSpaceOnUse" markerWidth="8" markerHeight="8" orient="auto"><path d="M 0 5 L 10 10 L 10 0 z" class="arrowMarkerPath" style="stroke-width: 1; stroke-dasharray: 1, 0;"/></marker><marker id="my-svg_flowchart-v2-pointEnd-margin" class="marker flowchart-v2" viewBox="0 0 11.5 14" refX="11.5" refY="7" markerUnits="userSpaceOnUse" markerWidth="10.5" markerHeight="14" orient="auto"><path d="M 0 0 L 11.5 7 L 0 14 z" class="arrowMarkerPath" style="stroke-width: 0; stroke-dasharray: 1, 0;"/></marker><marker id="my-svg_flowchart-v2-pointStart-margin" class="marker flowchart-v2" viewBox="0 0 11.5 14" refX="1" refY="7" markerUnits="userSpaceOnUse" markerWidth="11.5" markerHeight="14" orient="auto"><polygon points="0,7 11.5,14 11.5,0" class="arrowMarkerPath" style="stroke-width: 0; stroke-dasharray: 1, 0;"/></marker><marker id="my-svg_flowchart-v2-circleEnd" class="marker flowchart-v2" viewBox="0 0 10 10" refX="11" refY="5" markerUnits="userSpaceOnUse" markerWidth="11" markerHeight="11" orient="auto"><circle cx="5" cy="5" r="5" class="arrowMarkerPath" style="stroke-width: 1; stroke-dasharray: 1, 0;"/></marker><marker id="my-svg_flowchart-v2-circleStart" class="marker flowchart-v2" viewBox="0 0 10 10" refX="-1" refY="5" markerUnits="userSpaceOnUse" markerWidth="11" markerHeight="11" orient="auto"><circle cx="5" cy="5" r="5" class="arrowMarkerPath" style="stroke-width: 1; stroke-dasharray: 1, 0;"/></marker><marker id="my-svg_flowchart-v2-circleEnd-margin" class="marker flowchart-v2" viewBox="0 0 10 10" refY="5" refX="12.25" markerUnits="userSpaceOnUse" markerWidth="14" markerHeight="14" orient="auto"><circle cx="5" cy="5" r="5" class="arrowMarkerPath" style="stroke-width: 0; stroke-dasharray: 1, 0;"/></marker><marker id="my-svg_flowchart-v2-circleStart-margin" class="marker flowchart-v2" viewBox="0 0 10 10" refX="-2" refY="5" markerUnits="userSpaceOnUse" markerWidth="14" markerHeight="14" orient="auto"><circle cx="5" cy="5" r="5" class="arrowMarkerPath" style="stroke-width: 0; stroke-dasharray: 1, 0;"/></marker><marker id="my-svg_flowchart-v2-crossEnd" class="marker cross flowchart-v2" viewBox="0 0 11 11" refX="12" refY="5.2" markerUnits="userSpaceOnUse" markerWidth="11" markerHeight="11" orient="auto"><path d="M 1,1 l 9,9 M 10,1 l -9,9" class="arrowMarkerPath" style="stroke-width: 2; stroke-dasharray: 1, 0;"/></marker><marker id="my-svg_flowchart-v2-crossStart" class="marker cross flowchart-v2" viewBox="0 0 11 11" refX="-1" refY="5.2" markerUnits="userSpaceOnUse" markerWidth="11" markerHeight="11" orient="auto"><path d="M 1,1 l 9,9 M 10,1 l -9,9" class="arrowMarkerPath" style="stroke-width: 2; stroke-dasharray: 1, 0;"/></marker><marker id="my-svg_flowchart-v2-crossEnd-margin" class="marker cross flowchart-v2" viewBox="0 0 15 15" refX="17.7" refY="7.5" markerUnits="userSpaceOnUse" markerWidth="12" markerHeight="12" orient="auto"><path d="M 1,1 L 14,14 M 1,14 L 14,1" class="arrowMarkerPath" style="stroke-width: 2.5;"/></marker><marker id="my-svg_flowchart-v2-crossStart-margin" class="marker cross flowchart-v2" viewBox="0 0 15 15" refX="-3.5" refY="7.5" markerUnits="userSpaceOnUse" markerWidth="12" markerHeight="12" orient="auto"><path d="M 1,1 L 14,14 M 1,14 L 14,1" class="arrowMarkerPath" style="stroke-width: 2.5; stroke-dasharray: 1, 0;"/></marker><g class="root"><g class="clusters"/><g class="edgePaths"><path d="M383.711,62L383.711,66.167C383.711,70.333,383.711,78.667,383.711,86.333C383.711,94,383.711,101,383.711,104.5L383.711,108" id="my-svg-L_scope_definitions_0" class="edge-thickness-normal edge-pattern-solid edge-thickness-normal edge-pattern-solid flowchart-link" style=";" data-edge="true" data-et="edge" data-id="L_scope_definitions_0" data-points="W3sieCI6MzgzLjcxMDkzNzUsInkiOjYyfSx7IngiOjM4My43MTA5Mzc1LCJ5Ijo4N30seyJ4IjozODMuNzEwOTM3NSwieSI6MTEyfV0=" data-look="classic" marker-end="url(#my-svg_flowchart-v2-pointEnd)"/><path d="M383.711,166L383.711,170.167C383.711,174.333,383.711,182.667,383.711,190.333C383.711,198,383.711,205,383.711,208.5L383.711,212" id="my-svg-L_definitions_literature_review_0" class="edge-thickness-normal edge-pattern-solid edge-thickness-normal edge-pattern-solid flowchart-link" style=";" data-edge="true" data-et="edge" data-id="L_definitions_literature_review_0" data-points="W3sieCI6MzgzLjcxMDkzNzUsInkiOjE2Nn0seyJ4IjozODMuNzEwOTM3NSwieSI6MTkxfSx7IngiOjM4My43MTA5Mzc1LCJ5IjoyMTZ9XQ==" data-look="classic" marker-end="url(#my-svg_flowchart-v2-pointEnd)"/><path d="M291.023,265.206L261.948,272.171C232.872,279.137,174.721,293.069,145.646,305.534C116.57,318,116.57,329,116.57,334.5L116.57,340" id="my-svg-L_literature_review_H1_0" class="edge-thickness-normal edge-pattern-dotted edge-thickness-normal edge-pattern-solid flowchart-link" style=";" data-edge="true" data-et="edge" data-id="L_literature_review_H1_0" data-points="W3sieCI6MjkxLjAyMzQzNzUsInkiOjI2NS4yMDU1MzMxMzQ0NjgwNn0seyJ4IjoxMTYuNTcwMzEyNSwieSI6MzA3fSx7IngiOjExNi41NzAzMTI1LCJ5IjozNDR9XQ==" data-look="classic" marker-end="url(#my-svg_flowchart-v2-pointEnd)"/><path d="M383.711,270L383.711,276.167C383.711,282.333,383.711,294.667,383.711,306.333C383.711,318,383.711,329,383.711,334.5L383.711,340" id="my-svg-L_literature_review_H2_0" class="edge-thickness-normal edge-pattern-dotted edge-thickness-normal edge-pattern-solid flowchart-link" style=";" data-edge="true" data-et="edge" data-id="L_literature_review_H2_0" data-points="W3sieCI6MzgzLjcxMDkzNzUsInkiOjI3MH0seyJ4IjozODMuNzEwOTM3NSwieSI6MzA3fSx7IngiOjM4My43MTA5Mzc1LCJ5IjozNDR9XQ==" data-look="classic" marker-end="url(#my-svg_flowchart-v2-pointEnd)"/><path d="M476.398,265.13L505.625,272.109C534.852,279.087,593.305,293.043,622.531,305.522C651.758,318,651.758,329,651.758,334.5L651.758,340" id="my-svg-L_literature_review_HN_0" class="edge-thickness-normal edge-pattern-dotted edge-thickness-normal edge-pattern-solid flowchart-link" style=";" data-edge="true" data-et="edge" data-id="L_literature_review_HN_0" data-points="W3sieCI6NDc2LjM5ODQzNzUsInkiOjI2NS4xMzA0NTc1OTI1Mzg2fSx7IngiOjY1MS43NTc4MTI1LCJ5IjozMDd9LHsieCI6NjUxLjc1NzgxMjUsInkiOjM0NH1d" data-look="classic" marker-end="url(#my-svg_flowchart-v2-pointEnd)"/><path d="M116.57,398L116.57,402.167C116.57,406.333,116.57,414.667,116.57,422.333C116.57,430,116.57,437,116.57,440.5L116.57,444" id="my-svg-L_H1_ED1_0" class="edge-thickness-normal edge-pattern-solid edge-thickness-normal edge-pattern-solid flowchart-link" style=";" data-edge="true" data-et="edge" data-id="L_H1_ED1_0" data-points="W3sieCI6MTE2LjU3MDMxMjUsInkiOjM5OH0seyJ4IjoxMTYuNTcwMzEyNSwieSI6NDIzfSx7IngiOjExNi41NzAzMTI1LCJ5Ijo0NDh9XQ==" data-look="classic" marker-end="url(#my-svg_flowchart-v2-pointEnd)"/><path d="M116.57,502L116.57,506.167C116.57,510.333,116.57,518.667,116.57,526.333C116.57,534,116.57,541,116.57,544.5L116.57,548" id="my-svg-L_ED1_EG1_0" class="edge-thickness-normal edge-pattern-solid edge-thickness-normal edge-pattern-solid flowchart-link" style=";" data-edge="true" data-et="edge" data-id="L_ED1_EG1_0" data-points="W3sieCI6MTE2LjU3MDMxMjUsInkiOjUwMn0seyJ4IjoxMTYuNTcwMzEyNSwieSI6NTI3fSx7IngiOjExNi41NzAzMTI1LCJ5Ijo1NTJ9XQ==" data-look="classic" marker-end="url(#my-svg_flowchart-v2-pointEnd)"/><path d="M116.57,606L116.57,610.167C116.57,614.333,116.57,622.667,116.57,630.333C116.57,638,116.57,645,116.57,648.5L116.57,652" id="my-svg-L_EG1_A1_0" class="edge-thickness-normal edge-pattern-solid edge-thickness-normal edge-pattern-solid flowchart-link" style=";" data-edge="true" data-et="edge" data-id="L_EG1_A1_0" data-points="W3sieCI6MTE2LjU3MDMxMjUsInkiOjYwNn0seyJ4IjoxMTYuNTcwMzEyNSwieSI6NjMxfSx7IngiOjExNi41NzAzMTI1LCJ5Ijo2NTZ9XQ==" data-look="classic" marker-end="url(#my-svg_flowchart-v2-pointEnd)"/><path d="M383.711,398L383.711,402.167C383.711,406.333,383.711,414.667,383.711,422.333C383.711,430,383.711,437,383.711,440.5L383.711,444" id="my-svg-L_H2_ED2_0" class="edge-thickness-normal edge-pattern-solid edge-thickness-normal edge-pattern-solid flowchart-link" style=";" data-edge="true" data-et="edge" data-id="L_H2_ED2_0" data-points="W3sieCI6MzgzLjcxMDkzNzUsInkiOjM5OH0seyJ4IjozODMuNzEwOTM3NSwieSI6NDIzfSx7IngiOjM4My43MTA5Mzc1LCJ5Ijo0NDh9XQ==" data-look="classic" marker-end="url(#my-svg_flowchart-v2-pointEnd)"/><path d="M383.711,502L383.711,506.167C383.711,510.333,383.711,518.667,383.711,526.333C383.711,534,383.711,541,383.711,544.5L383.711,548" id="my-svg-L_ED2_EG2_0" class="edge-thickness-normal edge-pattern-solid edge-thickness-normal edge-pattern-solid flowchart-link" style=";" data-edge="true" data-et="edge" data-id="L_ED2_EG2_0" data-points="W3sieCI6MzgzLjcxMDkzNzUsInkiOjUwMn0seyJ4IjozODMuNzEwOTM3NSwieSI6NTI3fSx7IngiOjM4My43MTA5Mzc1LCJ5Ijo1NTJ9XQ==" data-look="classic" marker-end="url(#my-svg_flowchart-v2-pointEnd)"/><path d="M383.711,606L383.711,610.167C383.711,614.333,383.711,622.667,383.711,630.333C383.711,638,383.711,645,383.711,648.5L383.711,652" id="my-svg-L_EG2_A2_0" class="edge-thickness-normal edge-pattern-solid edge-thickness-normal edge-pattern-solid flowchart-link" style=";" data-edge="true" data-et="edge" data-id="L_EG2_A2_0" data-points="W3sieCI6MzgzLjcxMDkzNzUsInkiOjYwNn0seyJ4IjozODMuNzEwOTM3NSwieSI6NjMxfSx7IngiOjM4My43MTA5Mzc1LCJ5Ijo2NTZ9XQ==" data-look="classic" marker-end="url(#my-svg_flowchart-v2-pointEnd)"/><path d="M651.758,398L651.758,402.167C651.758,406.333,651.758,414.667,651.758,422.333C651.758,430,651.758,437,651.758,440.5L651.758,444" id="my-svg-L_HN_EDN_0" class="edge-thickness-normal edge-pattern-solid edge-thickness-normal edge-pattern-solid flowchart-link" style=";" data-edge="true" data-et="edge" data-id="L_HN_EDN_0" data-points="W3sieCI6NjUxLjc1NzgxMjUsInkiOjM5OH0seyJ4Ijo2NTEuNzU3ODEyNSwieSI6NDIzfSx7IngiOjY1MS43NTc4MTI1LCJ5Ijo0NDh9XQ==" data-look="classic" marker-end="url(#my-svg_flowchart-v2-pointEnd)"/><path d="M651.758,502L651.758,506.167C651.758,510.333,651.758,518.667,651.758,526.333C651.758,534,651.758,541,651.758,544.5L651.758,548" id="my-svg-L_EDN_EGN_0" class="edge-thickness-normal edge-pattern-solid edge-thickness-normal edge-pattern-solid flowchart-link" style=";" data-edge="true" data-et="edge" data-id="L_EDN_EGN_0" data-points="W3sieCI6NjUxLjc1NzgxMjUsInkiOjUwMn0seyJ4Ijo2NTEuNzU3ODEyNSwieSI6NTI3fSx7IngiOjY1MS43NTc4MTI1LCJ5Ijo1NTJ9XQ==" data-look="classic" marker-end="url(#my-svg_flowchart-v2-pointEnd)"/><path d="M651.758,606L651.758,610.167C651.758,614.333,651.758,622.667,651.758,630.333C651.758,638,651.758,645,651.758,648.5L651.758,652" id="my-svg-L_EGN_AN_0" class="edge-thickness-normal edge-pattern-solid edge-thickness-normal edge-pattern-solid flowchart-link" style=";" data-edge="true" data-et="edge" data-id="L_EGN_AN_0" data-points="W3sieCI6NjUxLjc1NzgxMjUsInkiOjYwNn0seyJ4Ijo2NTEuNzU3ODEyNSwieSI6NjMxfSx7IngiOjY1MS43NTc4MTI1LCJ5Ijo2NTZ9XQ==" data-look="classic" marker-end="url(#my-svg_flowchart-v2-pointEnd)"/><path d="M116.57,710L116.57,714.167C116.57,718.333,116.57,726.667,150.07,737.354C183.569,748.042,250.567,761.083,284.067,767.604L317.566,774.125" id="my-svg-L_A1_S_0" class="edge-thickness-normal edge-pattern-solid edge-thickness-normal edge-pattern-solid flowchart-link" style=";" data-edge="true" data-et="edge" data-id="L_A1_S_0" data-points="W3sieCI6MTE2LjU3MDMxMjUsInkiOjcxMH0seyJ4IjoxMTYuNTcwMzEyNSwieSI6NzM1fSx7IngiOjMyMS40OTIxODc1LCJ5Ijo3NzQuODg4ODY5MzkyMjkxMX1d" data-look="classic" marker-end="url(#my-svg_flowchart-v2-pointEnd)"/><path d="M383.711,710L383.711,714.167C383.711,718.333,383.711,726.667,383.711,734.333C383.711,742,383.711,749,383.711,752.5L383.711,756" id="my-svg-L_A2_S_0" class="edge-thickness-normal edge-pattern-solid edge-thickness-normal edge-pattern-solid flowchart-link" style=";" data-edge="true" data-et="edge" data-id="L_A2_S_0" data-points="W3sieCI6MzgzLjcxMDkzNzUsInkiOjcxMH0seyJ4IjozODMuNzEwOTM3NSwieSI6NzM1fSx7IngiOjM4My43MTA5Mzc1LCJ5Ijo3NjB9XQ==" data-look="classic" marker-end="url(#my-svg_flowchart-v2-pointEnd)"/><path d="M651.758,710L651.758,714.167C651.758,718.333,651.758,726.667,618.108,737.361C584.457,748.056,517.157,761.112,483.507,767.64L449.856,774.168" id="my-svg-L_AN_S_0" class="edge-thickness-normal edge-pattern-solid edge-thickness-normal edge-pattern-solid flowchart-link" style=";" data-edge="true" data-et="edge" data-id="L_AN_S_0" data-points="W3sieCI6NjUxLjc1NzgxMjUsInkiOjcxMH0seyJ4Ijo2NTEuNzU3ODEyNSwieSI6NzM1fSx7IngiOjQ0NS45Mjk2ODc1LCJ5Ijo3NzQuOTI5ODE2MzgwMDY0Mn1d" data-look="classic" marker-end="url(#my-svg_flowchart-v2-pointEnd)"/><path d="M383.711,814L383.711,818.167C383.711,822.333,383.711,830.667,383.781,838.417C383.851,846.167,383.992,853.334,384.062,856.917L384.133,860.501" id="my-svg-L_S_DONE_0" class="edge-thickness-normal edge-pattern-solid edge-thickness-normal edge-pattern-solid flowchart-link" style=";" data-edge="true" data-et="edge" data-id="L_S_DONE_0" data-points="W3sieCI6MzgzLjcxMDkzNzUsInkiOjgxNH0seyJ4IjozODMuNzEwOTM3NSwieSI6ODM5fSx7IngiOjM4NC4yMTA5Mzc1LCJ5Ijo4NjQuNX1d" data-look="classic" marker-end="url(#my-svg_flowchart-v2-pointEnd)"/></g><g class="edgeLabels"><g class="edgeLabel"><g class="label" data-id="L_scope_definitions_0" transform="translate(0, 0)"><foreignObject width="0" height="0"><div xmlns="http://www.w3.org/1999/xhtml" class="labelBkg" style="display: table-cell; white-space: nowrap; line-height: 1.5; max-width: 200px; text-align: center;"><span class="edgeLabel"></span></div></foreignObject></g></g><g class="edgeLabel"><g class="label" data-id="L_definitions_literature_review_0" transform="translate(0, 0)"><foreignObject width="0" height="0"><div xmlns="http://www.w3.org/1999/xhtml" class="labelBkg" style="display: table-cell; white-space: nowrap; line-height: 1.5; max-width: 200px; text-align: center;"><span class="edgeLabel"></span></div></foreignObject></g></g><g class="edgeLabel" transform="translate(116.5703125, 307)"><g class="label" data-id="L_literature_review_H1_0" transform="translate(-42.34375, -12)"><foreignObject width="84.6875" height="24"><div xmlns="http://www.w3.org/1999/xhtml" class="labelBkg" style="display: table-cell; white-space: nowrap; line-height: 1.5; max-width: 200px; text-align: center;"><span class="edgeLabel"><p>foreach gap</p></span></div></foreignObject></g></g><g class="edgeLabel" transform="translate(383.7109375, 307)"><g class="label" data-id="L_literature_review_H2_0" transform="translate(-42.34375, -12)"><foreignObject width="84.6875" height="24"><div xmlns="http://www.w3.org/1999/xhtml" class="labelBkg" style="display: table-cell; white-space: nowrap; line-height: 1.5; max-width: 200px; text-align: center;"><span class="edgeLabel"><p>foreach gap</p></span></div></foreignObject></g></g><g class="edgeLabel" transform="translate(651.7578125, 307)"><g class="label" data-id="L_literature_review_HN_0" transform="translate(-42.34375, -12)"><foreignObject width="84.6875" height="24"><div xmlns="http://www.w3.org/1999/xhtml" class="labelBkg" style="display: table-cell; white-space: nowrap; line-height: 1.5; max-width: 200px; text-align: center;"><span class="edgeLabel"><p>foreach gap</p></span></div></foreignObject></g></g><g class="edgeLabel"><g class="label" data-id="L_H1_ED1_0" transform="translate(0, 0)"><foreignObject width="0" height="0"><div xmlns="http://www.w3.org/1999/xhtml" class="labelBkg" style="display: table-cell; white-space: nowrap; line-height: 1.5; max-width: 200px; text-align: center;"><span class="edgeLabel"></span></div></foreignObject></g></g><g class="edgeLabel"><g class="label" data-id="L_ED1_EG1_0" transform="translate(0, 0)"><foreignObject width="0" height="0"><div xmlns="http://www.w3.org/1999/xhtml" class="labelBkg" style="display: table-cell; white-space: nowrap; line-height: 1.5; max-width: 200px; text-align: center;"><span class="edgeLabel"></span></div></foreignObject></g></g><g class="edgeLabel"><g class="label" data-id="L_EG1_A1_0" transform="translate(0, 0)"><foreignObject width="0" height="0"><div xmlns="http://www.w3.org/1999/xhtml" class="labelBkg" style="display: table-cell; white-space: nowrap; line-height: 1.5; max-width: 200px; text-align: center;"><span class="edgeLabel"></span></div></foreignObject></g></g><g class="edgeLabel"><g class="label" data-id="L_H2_ED2_0" transform="translate(0, 0)"><foreignObject width="0" height="0"><div xmlns="http://www.w3.org/1999/xhtml" class="labelBkg" style="display: table-cell; white-space: nowrap; line-height: 1.5; max-width: 200px; text-align: center;"><span class="edgeLabel"></span></div></foreignObject></g></g><g class="edgeLabel"><g class="label" data-id="L_ED2_EG2_0" transform="translate(0, 0)"><foreignObject width="0" height="0"><div xmlns="http://www.w3.org/1999/xhtml" class="labelBkg" style="display: table-cell; white-space: nowrap; line-height: 1.5; max-width: 200px; text-align: center;"><span class="edgeLabel"></span></div></foreignObject></g></g><g class="edgeLabel"><g class="label" data-id="L_EG2_A2_0" transform="translate(0, 0)"><foreignObject width="0" height="0"><div xmlns="http://www.w3.org/1999/xhtml" class="labelBkg" style="display: table-cell; white-space: nowrap; line-height: 1.5; max-width: 200px; text-align: center;"><span class="edgeLabel"></span></div></foreignObject></g></g><g class="edgeLabel"><g class="label" data-id="L_HN_EDN_0" transform="translate(0, 0)"><foreignObject width="0" height="0"><div xmlns="http://www.w3.org/1999/xhtml" class="labelBkg" style="display: table-cell; white-space: nowrap; line-height: 1.5; max-width: 200px; text-align: center;"><span class="edgeLabel"></span></div></foreignObject></g></g><g class="edgeLabel"><g class="label" data-id="L_EDN_EGN_0" transform="translate(0, 0)"><foreignObject width="0" height="0"><div xmlns="http://www.w3.org/1999/xhtml" class="labelBkg" style="display: table-cell; white-space: nowrap; line-height: 1.5; max-width: 200px; text-align: center;"><span class="edgeLabel"></span></div></foreignObject></g></g><g class="edgeLabel"><g class="label" data-id="L_EGN_AN_0" transform="translate(0, 0)"><foreignObject width="0" height="0"><div xmlns="http://www.w3.org/1999/xhtml" class="labelBkg" style="display: table-cell; white-space: nowrap; line-height: 1.5; max-width: 200px; text-align: center;"><span class="edgeLabel"></span></div></foreignObject></g></g><g class="edgeLabel"><g class="label" data-id="L_A1_S_0" transform="translate(0, 0)"><foreignObject width="0" height="0"><div xmlns="http://www.w3.org/1999/xhtml" class="labelBkg" style="display: table-cell; white-space: nowrap; line-height: 1.5; max-width: 200px; text-align: center;"><span class="edgeLabel"></span></div></foreignObject></g></g><g class="edgeLabel"><g class="label" data-id="L_A2_S_0" transform="translate(0, 0)"><foreignObject width="0" height="0"><div xmlns="http://www.w3.org/1999/xhtml" class="labelBkg" style="display: table-cell; white-space: nowrap; line-height: 1.5; max-width: 200px; text-align: center;"><span class="edgeLabel"></span></div></foreignObject></g></g><g class="edgeLabel"><g class="label" data-id="L_AN_S_0" transform="translate(0, 0)"><foreignObject width="0" height="0"><div xmlns="http://www.w3.org/1999/xhtml" class="labelBkg" style="display: table-cell; white-space: nowrap; line-height: 1.5; max-width: 200px; text-align: center;"><span class="edgeLabel"></span></div></foreignObject></g></g><g class="edgeLabel"><g class="label" data-id="L_S_DONE_0" transform="translate(0, 0)"><foreignObject width="0" height="0"><div xmlns="http://www.w3.org/1999/xhtml" class="labelBkg" style="display: table-cell; white-space: nowrap; line-height: 1.5; max-width: 200px; text-align: center;"><span class="edgeLabel"></span></div></foreignObject></g></g></g><g class="nodes"><g class="node default" id="my-svg-flowchart-scope-0" data-look="classic" transform="translate(383.7109375, 35)"><rect class="basic label-container" style="" x="-50.3125" y="-27" width="100.625" height="54"/><g class="label" style="" transform="translate(-20.3125, -12)"><rect/><foreignObject width="40.625" height="24"><div xmlns="http://www.w3.org/1999/xhtml" style="display: table-cell; white-space: nowrap; line-height: 1.5; max-width: 200px; text-align: center;"><span class="nodeLabel"><p>scope</p></span></div></foreignObject></g></g><g class="node default" id="my-svg-flowchart-definitions-1" data-look="classic" transform="translate(383.7109375, 139)"><rect class="basic label-container" style="" x="-68.0703125" y="-27" width="136.140625" height="54"/><g class="label" style="" transform="translate(-38.0703125, -12)"><rect/><foreignObject width="76.140625" height="24"><div xmlns="http://www.w3.org/1999/xhtml" style="display: table-cell; white-space: nowrap; line-height: 1.5; max-width: 200px; text-align: center;"><span class="nodeLabel"><p>definitions</p></span></div></foreignObject></g></g><g class="node default" id="my-svg-flowchart-literature_review-2" data-look="classic" transform="translate(383.7109375, 243)"><rect class="basic label-container" style="" x="-92.6875" y="-27" width="185.375" height="54"/><g class="label" style="" transform="translate(-62.6875, -12)"><rect/><foreignObject width="125.375" height="24"><div xmlns="http://www.w3.org/1999/xhtml" style="display: table-cell; white-space: nowrap; line-height: 1.5; max-width: 200px; text-align: center;"><span class="nodeLabel"><p>literature_review</p></span></div></foreignObject></g></g><g class="node default" id="my-svg-flowchart-H1-4" data-look="classic" transform="translate(116.5703125, 371)"><rect class="basic label-container" style="" x="-76.125" y="-27" width="152.25" height="54"/><g class="label" style="" transform="translate(-46.125, -12)"><rect/><foreignObject width="92.25" height="24"><div xmlns="http://www.w3.org/1999/xhtml" style="display: table-cell; white-space: nowrap; line-height: 1.5; max-width: 200px; text-align: center;"><span class="nodeLabel"><p>hypothesis_1</p></span></div></foreignObject></g></g><g class="node default" id="my-svg-flowchart-H2-6" data-look="classic" transform="translate(383.7109375, 371)"><rect class="basic label-container" style="" x="-76.125" y="-27" width="152.25" height="54"/><g class="label" style="" transform="translate(-46.125, -12)"><rect/><foreignObject width="92.25" height="24"><div xmlns="http://www.w3.org/1999/xhtml" style="display: table-cell; white-space: nowrap; line-height: 1.5; max-width: 200px; text-align: center;"><span class="nodeLabel"><p>hypothesis_2</p></span></div></foreignObject></g></g><g class="node default" id="my-svg-flowchart-HN-8" data-look="classic" transform="translate(651.7578125, 371)"><rect class="basic label-container" style="" x="-77.03125" y="-27" width="154.0625" height="54"/><g class="label" style="" transform="translate(-47.03125, -12)"><rect/><foreignObject width="94.0625" height="24"><div xmlns="http://www.w3.org/1999/xhtml" style="display: table-cell; white-space: nowrap; line-height: 1.5; max-width: 200px; text-align: center;"><span class="nodeLabel"><p>hypothesis_N</p></span></div></foreignObject></g></g><g class="node default" id="my-svg-flowchart-ED1-10" data-look="classic" transform="translate(116.5703125, 475)"><rect class="basic label-container" style="" x="-106.4453125" y="-27" width="212.890625" height="54"/><g class="label" style="" transform="translate(-76.4453125, -12)"><rect/><foreignObject width="152.890625" height="24"><div xmlns="http://www.w3.org/1999/xhtml" style="display: table-cell; white-space: nowrap; line-height: 1.5; max-width: 200px; text-align: center;"><span class="nodeLabel"><p>experiment_design_1</p></span></div></foreignObject></g></g><g class="node default" id="my-svg-flowchart-EG1-11" data-look="classic" transform="translate(116.5703125, 579)"><rect class="basic label-container" style="" x="-108.5703125" y="-27" width="217.140625" height="54"/><g class="label" style="" transform="translate(-78.5703125, -12)"><rect/><foreignObject width="157.140625" height="24"><div xmlns="http://www.w3.org/1999/xhtml" style="display: table-cell; white-space: nowrap; line-height: 1.5; max-width: 200px; text-align: center;"><span class="nodeLabel"><p>evidence_gathering_1</p></span></div></foreignObject></g></g><g class="node default" id="my-svg-flowchart-A1-12" data-look="classic" transform="translate(116.5703125, 683)"><rect class="basic label-container" style="" x="-66.234375" y="-27" width="132.46875" height="54"/><g class="label" style="" transform="translate(-36.234375, -12)"><rect/><foreignObject width="72.46875" height="24"><div xmlns="http://www.w3.org/1999/xhtml" style="display: table-cell; white-space: nowrap; line-height: 1.5; max-width: 200px; text-align: center;"><span class="nodeLabel"><p>analysis_1</p></span></div></foreignObject></g></g><g class="node default" id="my-svg-flowchart-ED2-14" data-look="classic" transform="translate(383.7109375, 475)"><rect class="basic label-container" style="" x="-106.4453125" y="-27" width="212.890625" height="54"/><g class="label" style="" transform="translate(-76.4453125, -12)"><rect/><foreignObject width="152.890625" height="24"><div xmlns="http://www.w3.org/1999/xhtml" style="display: table-cell; white-space: nowrap; line-height: 1.5; max-width: 200px; text-align: center;"><span class="nodeLabel"><p>experiment_design_2</p></span></div></foreignObject></g></g><g class="node default" id="my-svg-flowchart-EG2-15" data-look="classic" transform="translate(383.7109375, 579)"><rect class="basic label-container" style="" x="-108.5703125" y="-27" width="217.140625" height="54"/><g class="label" style="" transform="translate(-78.5703125, -12)"><rect/><foreignObject width="157.140625" height="24"><div xmlns="http://www.w3.org/1999/xhtml" style="display: table-cell; white-space: nowrap; line-height: 1.5; max-width: 200px; text-align: center;"><span class="nodeLabel"><p>evidence_gathering_2</p></span></div></foreignObject></g></g><g class="node default" id="my-svg-flowchart-A2-16" data-look="classic" transform="translate(383.7109375, 683)"><rect class="basic label-container" style="" x="-66.234375" y="-27" width="132.46875" height="54"/><g class="label" style="" transform="translate(-36.234375, -12)"><rect/><foreignObject width="72.46875" height="24"><div xmlns="http://www.w3.org/1999/xhtml" style="display: table-cell; white-space: nowrap; line-height: 1.5; max-width: 200px; text-align: center;"><span class="nodeLabel"><p>analysis_2</p></span></div></foreignObject></g></g><g class="node default" id="my-svg-flowchart-EDN-18" data-look="classic" transform="translate(651.7578125, 475)"><rect class="basic label-container" style="" x="-107.3515625" y="-27" width="214.703125" height="54"/><g class="label" style="" transform="translate(-77.3515625, -12)"><rect/><foreignObject width="154.703125" height="24"><div xmlns="http://www.w3.org/1999/xhtml" style="display: table-cell; white-space: nowrap; line-height: 1.5; max-width: 200px; text-align: center;"><span class="nodeLabel"><p>experiment_design_N</p></span></div></foreignObject></g></g><g class="node default" id="my-svg-flowchart-EGN-19" data-look="classic" transform="translate(651.7578125, 579)"><rect class="basic label-container" style="" x="-109.4765625" y="-27" width="218.953125" height="54"/><g class="label" style="" transform="translate(-79.4765625, -12)"><rect/><foreignObject width="158.953125" height="24"><div xmlns="http://www.w3.org/1999/xhtml" style="display: table-cell; white-space: nowrap; line-height: 1.5; max-width: 200px; text-align: center;"><span class="nodeLabel"><p>evidence_gathering_N</p></span></div></foreignObject></g></g><g class="node default" id="my-svg-flowchart-AN-20" data-look="classic" transform="translate(651.7578125, 683)"><rect class="basic label-container" style="" x="-67.140625" y="-27" width="134.28125" height="54"/><g class="label" style="" transform="translate(-37.140625, -12)"><rect/><foreignObject width="74.28125" height="24"><div xmlns="http://www.w3.org/1999/xhtml" style="display: table-cell; white-space: nowrap; line-height: 1.5; max-width: 200px; text-align: center;"><span class="nodeLabel"><p>analysis_N</p></span></div></foreignObject></g></g><g class="node default io" id="my-svg-flowchart-S-22" data-look="classic" transform="translate(383.7109375, 787)"><rect class="basic label-container" style="fill:#1f2d3d !important;stroke:#6ee7b7 !important" x="-62.21875" y="-27" width="124.4375" height="54"/><g class="label" style="color:#fff !important" transform="translate(-32.21875, -12)"><rect/><foreignObject width="64.4375" height="24"><div style="color: rgb(255, 255, 255) !important; display: table-cell; white-space: nowrap; line-height: 1.5; max-width: 200px; text-align: center;" xmlns="http://www.w3.org/1999/xhtml"><span style="color:#fff !important" class="nodeLabel"><p>synthesis</p></span></div></foreignObject></g></g><g class="node default" id="my-svg-flowchart-DONE-28" data-look="classic" transform="translate(383.7109375, 883.5)"><g class="basic label-container outer-path"><path d="M-10.359375 -19.5 C-3.995983263235704 -19.5, 2.3674084735285916 -19.5, 10.359375 -19.5 C10.359375 -19.5, 10.359374999999998 -19.5, 10.359374999999998 -19.5 C10.742978095496966 -19.487698595365543, 11.126581190993933 -19.475397190731083, 11.6087442896239 -19.45993515863156 C11.949706770985294 -19.427042918122005, 12.290669252346687 -19.394150677612448, 12.852979652847864 -19.3399052695533 C13.233877012991652 -19.278324738268395, 13.614774373135441 -19.216744206983496, 14.086968259676757 -19.140403561325776 C14.54180782062603 -19.036589399644622, 14.996647381575302 -18.93277523796347, 15.30563938623539 -18.862249829261074 C15.580567572973655 -18.78065258656466, 15.85549575971192 -18.699055343868242, 16.503985251460602 -18.50658706670804 C16.91760615854456 -18.35437074943139, 17.331227065628518 -18.202154432154742, 17.677081595147794 -18.074876768247425 C18.04379056840705 -17.912545583820748, 18.410499541666304 -17.750214399394068, 18.82010791279238 -17.568892924097174 C19.141372887965186 -17.40128919232956, 19.462637863137992 -17.233685460561944, 19.928367264076783 -16.990714730406097 C20.328257471160672 -16.748298936856138, 20.72814767824456 -16.50588314330618, 20.997305573605697 -16.342718045390892 C21.36396867294498 -16.086949739881558, 21.73063177228427 -15.83118143437222, 22.022530344578712 -15.627565626425154 C22.405469811146038 -15.322181592284887, 22.788409277713367 -15.01679755814462, 22.99982870850187 -14.848196188198123 C23.362244993123863 -14.51905930751386, 23.724661277745856 -14.189922426829597, 23.925184736767985 -14.007812326905688 C24.207245449079142 -13.716561483829262, 24.489306161390303 -13.425310640752837, 24.794795942968648 -13.10986736009568 C25.086199702028736 -12.767567923360085, 25.377603461088825 -12.425268486624487, 25.605088908126582 -12.158051136245305 C25.84763138328835 -11.833066315602583, 26.090173858450115 -11.50808149495986, 26.352733964640635 -11.156274872382312 C26.5103275836752 -10.914168753733179, 26.667921202709763 -10.672062635084046, 27.034658878604247 -10.108655082055241 C27.21019683895225 -9.796969658311406, 27.385734799300252 -9.485284234567573, 27.6480614742735 -9.019496659696287 C27.849072521068415 -8.602092920079249, 28.050083567863325 -8.18468918046221, 28.19042114880834 -7.893275190886684 C28.319368891743178 -7.574771772802624, 28.44831663467802 -7.256268354718564, 28.659509229970325 -6.734618561215508 C28.767938579506627 -6.408046636282911, 28.876367929042924 -6.081474711350315, 29.05339813421488 -5.548287939305138 C29.119160197697145 -5.297508689788668, 29.184922261179405 -5.046729440272197, 29.37046928754556 -4.339158212148133 C29.441197775137567 -3.9759823768343323, 29.51192626272957 -3.6128065415205315, 29.609419776581777 -3.1121979531509023 C29.642153721405293 -2.85831994114824, 29.674887666228813 -2.6044419291455774, 29.769267702509367 -1.872449005199798 C29.79102428978026 -1.5335725968544875, 29.81278087705115 -1.1946961885091771, 29.849356215913414 -0.6250057626472757 C29.849356215913414 -0.22674555577096778, 29.849356215913414 0.17151465110534014, 29.849356215913414 0.625005762647271 C29.823922086619564 1.0211628564586535, 29.79848795732571 1.417319950270036, 29.769267702509367 1.8724490051997846 C29.706134067145634 2.3621010139344807, 29.643000431781896 2.8517530226691767, 29.609419776581777 3.1121979531508885 C29.546018296258232 3.4377511547046926, 29.482616815934684 3.7633043562584962, 29.37046928754556 4.339158212148129 C29.278199125706248 4.6910243293825316, 29.185928963866935 5.042890446616935, 29.053398134214884 5.548287939305125 C28.920956338489546 5.947181526295364, 28.788514542764208 6.346075113285604, 28.65950922997033 6.734618561215495 C28.510453839906013 7.102788256464276, 28.361398449841698 7.470957951713057, 28.190421148808344 7.893275190886679 C28.018865961134356 8.2495132087847, 27.847310773460364 8.60575122668272, 27.648061474273504 9.019496659696284 C27.438981180148637 9.390739893590546, 27.229900886023767 9.761983127484806, 27.03465887860425 10.108655082055236 C26.80239023889256 10.465482085515179, 26.57012159918087 10.822309088975121, 26.35273396464064 11.156274872382301 C26.070089232189847 11.534993064401526, 25.78744449973905 11.91371125642075, 25.605088908126582 12.158051136245302 C25.34047732774742 12.468878955384135, 25.07586574736825 12.779706774522966, 24.79479594296866 13.10986736009567 C24.612442017127243 13.298162760062676, 24.43008809128583 13.486458160029683, 23.92518473676799 14.007812326905684 C23.592724526856315 14.309743893132342, 23.260264316944642 14.611675459358999, 22.999828708501887 14.848196188198111 C22.695757663676304 15.090684754776182, 22.39168661885072 15.333173321354254, 22.022530344578715 15.627565626425152 C21.647882619651952 15.888903661095444, 21.273234894725185 16.150241695765736, 20.997305573605708 16.34271804539089 C20.692268549544153 16.527633281973532, 20.387231525482598 16.712548518556176, 19.928367264076787 16.990714730406093 C19.600258699099673 17.161888758591086, 19.27215013412256 17.333062786776082, 18.820107912792388 17.56889292409717 C18.566543510509792 17.68113836326693, 18.312979108227193 17.79338380243669, 17.677081595147804 18.07487676824742 C17.3094390828508 18.21017261122285, 16.941796570553798 18.345468454198272, 16.503985251460616 18.506587066708033 C16.248908654054507 18.582292461893786, 15.993832056648394 18.657997857079536, 15.305639386235413 18.86224982926107 C14.931668755460485 18.947606185349017, 14.557698124685558 19.03296254143696, 14.086968259676766 19.140403561325773 C13.76665368968877 19.192189536924843, 13.446339119700774 19.24397551252391, 12.852979652847878 19.3399052695533 C12.38973409377032 19.384594011503214, 11.926488534692764 19.42928275345313, 11.6087442896239 19.45993515863156 C11.174598793831388 19.47385735966868, 10.740453298038876 19.487779560705803, 10.359375000000004 19.5 C10.359375000000002 19.5, 10.359375000000002 19.5, 10.359375 19.5 C5.476117138067332 19.5, 0.5928592761346643 19.5, -10.359374999999996 19.5 C-10.825339694114453 19.485057419205006, -11.291304388228909 19.470114838410012, -11.608744289623893 19.45993515863156 C-11.885809028139096 19.433207056526097, -12.1628737666543 19.406478954420635, -12.852979652847871 19.3399052695533 C-13.141851092691626 19.293202775390835, -13.43072253253538 19.246500281228368, -14.086968259676759 19.140403561325773 C-14.357037062804485 19.07876211937551, -14.627105865932212 19.01712067742525, -15.305639386235388 18.862249829261074 C-15.60663253707574 18.772916642036947, -15.907625687916092 18.683583454812823, -16.50398525146059 18.506587066708043 C-16.821958048643896 18.38957013803627, -17.1399308458272 18.2725532093645, -17.677081595147797 18.074876768247425 C-17.94021145676978 17.95839698397739, -18.20334131839176 17.841917199707353, -18.82010791279238 17.568892924097174 C-19.21047148942306 17.365240496208752, -19.600835066053744 17.16158806832033, -19.92836726407678 16.990714730406097 C-20.22671921079019 16.809852026997774, -20.525071157503604 16.62898932358945, -20.997305573605686 16.3427180453909 C-21.22779972146119 16.181935305777746, -21.45829386931669 16.021152566164595, -22.022530344578712 15.627565626425156 C-22.390682448631804 15.333974120381749, -22.7588345526849 15.04038261433834, -22.99982870850187 14.848196188198125 C-23.28534278979436 14.588899853856915, -23.570856871086846 14.329603519515706, -23.925184736767974 14.007812326905697 C-24.191923383195835 13.732382774818783, -24.458662029623692 13.45695322273187, -24.794795942968655 13.109867360095677 C-25.081678444668906 12.772878849521772, -25.36856094636916 12.435890338947866, -25.60508890812658 12.158051136245307 C-25.85028161687059 11.829515244043627, -26.0954743256146 11.500979351841947, -26.352733964640635 11.156274872382316 C-26.49557487661163 10.936832873439354, -26.638415788582627 10.717390874496392, -27.034658878604244 10.108655082055249 C-27.237383188141198 9.748697542410058, -27.440107497678152 9.38874000276487, -27.6480614742735 9.019496659696289 C-27.80634096322411 8.690825914251814, -27.96462045217472 8.362155168807337, -28.19042114880834 7.893275190886686 C-28.3173166160816 7.579840933364773, -28.444212083354863 7.26640667584286, -28.659509229970325 6.73461856121551 C-28.770873454568378 6.399207260205751, -28.88223767916643 6.063795959195993, -29.05339813421488 5.5482879393051325 C-29.174003042726866 5.088369152650938, -29.29460795123885 4.628450365996744, -29.370469287545557 4.339158212148136 C-29.425510094699806 4.056535300289789, -29.480550901854052 3.773912388431442, -29.609419776581777 3.112197953150904 C-29.665712216025693 2.675604909023398, -29.722004655469604 2.2390118648958928, -29.769267702509364 1.872449005199809 C-29.791986641993383 1.5185831843383597, -29.814705581477398 1.1647173634769106, -29.849356215913414 0.6250057626472781 C-29.849356215913414 0.36248420484086724, -29.849356215913414 0.09996264703445634, -29.849356215913414 -0.6250057626472687 C-29.8189686977375 -1.0983158866003069, -29.78858117956159 -1.571626010553345, -29.769267702509367 -1.8724490051997822 C-29.71398849387521 -2.3011836312518716, -29.658709285241052 -2.7299182573039613, -29.609419776581777 -3.112197953150895 C-29.52294702775773 -3.5562172423404323, -29.436474278933687 -4.0002365315299695, -29.37046928754556 -4.339158212148126 C-29.26792924662866 -4.730187829299113, -29.165389205711765 -5.1212174464501, -29.053398134214884 -5.548287939305123 C-28.931541355521734 -5.915301141487846, -28.809684576828587 -6.282314343670569, -28.659509229970332 -6.734618561215485 C-28.545330911071193 -7.016641216383981, -28.431152592172054 -7.298663871552477, -28.190421148808344 -7.893275190886676 C-28.01430048264398 -8.258993522555558, -27.83817981647961 -8.62471185422444, -27.648061474273504 -9.019496659696282 C-27.414956935125602 -9.433397373347546, -27.181852395977696 -9.84729808699881, -27.034658878604247 -10.108655082055243 C-26.888951962907683 -10.33250003235044, -26.743245047211115 -10.556344982645639, -26.35273396464064 -11.156274872382308 C-26.065393768520295 -11.54128455795319, -25.778053572399948 -11.926294243524072, -25.605088908126586 -12.158051136245302 C-25.439293849939496 -12.352803445597921, -25.27349879175241 -12.54755575495054, -24.794795942968662 -13.10986736009567 C-24.55486182195539 -13.357619038999557, -24.31492770094212 -13.605370717903444, -23.925184736767996 -14.007812326905677 C-23.69576465873172 -14.21616557165559, -23.466344580695445 -14.424518816405504, -22.999828708501887 -14.848196188198107 C-22.612403354325235 -15.15715759833233, -22.224978000148585 -15.46611900846655, -22.02253034457872 -15.627565626425149 C-21.778638484523796 -15.797694030091005, -21.534746624468873 -15.967822433756861, -20.99730557360571 -16.342718045390885 C-20.71566806650437 -16.513448357281423, -20.43403055940303 -16.684178669171956, -19.92836726407679 -16.99071473040609 C-19.485138924517152 -17.221946671253054, -19.041910584957513 -17.453178612100015, -18.820107912792388 -17.56889292409717 C-18.585894303094438 -17.672572341410575, -18.351680693396485 -17.776251758723976, -17.677081595147804 -18.07487676824742 C-17.211825931491834 -18.246095153249026, -16.746570267835864 -18.41731353825063, -16.50398525146062 -18.506587066708033 C-16.101980630635012 -18.625899928003758, -15.699976009809404 -18.745212789299483, -15.305639386235413 -18.862249829261067 C-14.962185361368078 -18.94064096919007, -14.618731336500746 -19.01903210911907, -14.086968259676768 -19.140403561325773 C-13.743328898049764 -19.195960508350577, -13.399689536422759 -19.25151745537538, -12.85297965284788 -19.3399052695533 C-12.355960195152193 -19.38785213888385, -11.858940737456505 -19.4357990082144, -11.608744289623903 -19.45993515863156 C-11.200503461937043 -19.47302664738291, -10.792262634250182 -19.486118136134262, -10.359375000000005 -19.5 C-10.359375000000004 -19.5, -10.359375000000004 -19.5, -10.359375 -19.5" stroke="none" stroke-width="0" fill="#ECECFF" style=""/><path d="M-10.359375 -19.5 C-4.067940731448941 -19.5, 2.2234935371021187 -19.5, 10.359375 -19.5 M-10.359375 -19.5 C-2.124737622727043 -19.5, 6.109899754545914 -19.5, 10.359375 -19.5 M10.359375 -19.5 C10.359375 -19.5, 10.359375 -19.5, 10.359374999999998 -19.5 M10.359375 -19.5 C10.359375 -19.5, 10.359374999999998 -19.5, 10.359374999999998 -19.5 M10.359374999999998 -19.5 C10.811836714171822 -19.48549043348981, 11.264298428343647 -19.47098086697962, 11.6087442896239 -19.45993515863156 M10.359374999999998 -19.5 C10.67572482306135 -19.489855276912, 10.9920746461227 -19.479710553824, 11.6087442896239 -19.45993515863156 M11.6087442896239 -19.45993515863156 C12.060251229597085 -19.416378827148886, 12.511758169570271 -19.372822495666213, 12.852979652847864 -19.3399052695533 M11.6087442896239 -19.45993515863156 C11.926670156589516 -19.429265232607182, 12.244596023555133 -19.398595306582806, 12.852979652847864 -19.3399052695533 M12.852979652847864 -19.3399052695533 C13.230519944181644 -19.27886748311914, 13.608060235515426 -19.217829696684984, 14.086968259676757 -19.140403561325776 M12.852979652847864 -19.3399052695533 C13.256802317773264 -19.2746183527797, 13.660624982698662 -19.2093314360061, 14.086968259676757 -19.140403561325776 M14.086968259676757 -19.140403561325776 C14.51288583860468 -19.043190653307427, 14.938803417532602 -18.945977745289074, 15.30563938623539 -18.862249829261074 M14.086968259676757 -19.140403561325776 C14.399310934454013 -19.069113384034303, 14.711653609231266 -18.99782320674283, 15.30563938623539 -18.862249829261074 M15.30563938623539 -18.862249829261074 C15.70881110821682 -18.74259057846854, 16.111982830198247 -18.622931327676007, 16.503985251460602 -18.50658706670804 M15.30563938623539 -18.862249829261074 C15.630415933172774 -18.76585785491694, 15.955192480110156 -18.66946588057281, 16.503985251460602 -18.50658706670804 M16.503985251460602 -18.50658706670804 C16.75658650499983 -18.41362747038521, 17.009187758539063 -18.320667874062384, 17.677081595147794 -18.074876768247425 M16.503985251460602 -18.50658706670804 C16.92790946856439 -18.35057903610134, 17.351833685668176 -18.19457100549464, 17.677081595147794 -18.074876768247425 M17.677081595147794 -18.074876768247425 C18.114399909624833 -17.881288923015322, 18.551718224101872 -17.68770107778322, 18.82010791279238 -17.568892924097174 M17.677081595147794 -18.074876768247425 C18.12667102102999 -17.875856866005847, 18.576260446912183 -17.676836963764266, 18.82010791279238 -17.568892924097174 M18.82010791279238 -17.568892924097174 C19.088145359731413 -17.42905795971526, 19.356182806670446 -17.289222995333343, 19.928367264076783 -16.990714730406097 M18.82010791279238 -17.568892924097174 C19.207011666994084 -17.367045483353827, 19.59391542119579 -17.165198042610484, 19.928367264076783 -16.990714730406097 M19.928367264076783 -16.990714730406097 C20.2641905148662 -16.787136702261073, 20.600013765655614 -16.583558674116052, 20.997305573605697 -16.342718045390892 M19.928367264076783 -16.990714730406097 C20.142461563577665 -16.860929507890905, 20.356555863078547 -16.731144285375713, 20.997305573605697 -16.342718045390892 M20.997305573605697 -16.342718045390892 C21.342117192578705 -16.102192386649733, 21.686928811551716 -15.86166672790857, 22.022530344578712 -15.627565626425154 M20.997305573605697 -16.342718045390892 C21.2168707339012 -16.18955889439135, 21.436435894196702 -16.036399743391804, 22.022530344578712 -15.627565626425154 M22.022530344578712 -15.627565626425154 C22.41148194852057 -15.317387072718393, 22.80043355246243 -15.007208519011632, 22.99982870850187 -14.848196188198123 M22.022530344578712 -15.627565626425154 C22.2301441097897 -15.461999173503713, 22.43775787500068 -15.296432720582274, 22.99982870850187 -14.848196188198123 M22.99982870850187 -14.848196188198123 C23.222846002681145 -14.64565778233876, 23.44586329686042 -14.443119376479398, 23.925184736767985 -14.007812326905688 M22.99982870850187 -14.848196188198123 C23.219840291384124 -14.648387489811954, 23.439851874266374 -14.448578791425785, 23.925184736767985 -14.007812326905688 M23.925184736767985 -14.007812326905688 C24.111432614008876 -13.815496102419367, 24.297680491249768 -13.623179877933046, 24.794795942968648 -13.10986736009568 M23.925184736767985 -14.007812326905688 C24.253703331253508 -13.668589906221168, 24.582221925739034 -13.329367485536647, 24.794795942968648 -13.10986736009568 M24.794795942968648 -13.10986736009568 C25.000611875249135 -12.86810425478071, 25.206427807529625 -12.626341149465738, 25.605088908126582 -12.158051136245305 M24.794795942968648 -13.10986736009568 C25.065368478962707 -12.792037463303611, 25.33594101495677 -12.47420756651154, 25.605088908126582 -12.158051136245305 M25.605088908126582 -12.158051136245305 C25.79213232972558 -11.907429991308904, 25.979175751324572 -11.656808846372504, 26.352733964640635 -11.156274872382312 M25.605088908126582 -12.158051136245305 C25.860796279627863 -11.815426553854364, 26.116503651129143 -11.472801971463422, 26.352733964640635 -11.156274872382312 M26.352733964640635 -11.156274872382312 C26.540378715473533 -10.868002145432165, 26.72802346630643 -10.579729418482017, 27.034658878604247 -10.108655082055241 M26.352733964640635 -11.156274872382312 C26.617052400856867 -10.750210774915999, 26.881370837073096 -10.344146677449688, 27.034658878604247 -10.108655082055241 M27.034658878604247 -10.108655082055241 C27.270819228476935 -9.689328467027734, 27.506979578349622 -9.270001852000226, 27.6480614742735 -9.019496659696287 M27.034658878604247 -10.108655082055241 C27.232417019095013 -9.757515478430705, 27.43017515958578 -9.406375874806166, 27.6480614742735 -9.019496659696287 M27.6480614742735 -9.019496659696287 C27.796775816049315 -8.710688147021635, 27.94549015782513 -8.401879634346983, 28.19042114880834 -7.893275190886684 M27.6480614742735 -9.019496659696287 C27.825047724192483 -8.65198092484042, 28.00203397411147 -8.28446518998455, 28.19042114880834 -7.893275190886684 M28.19042114880834 -7.893275190886684 C28.365177071823013 -7.461624682364525, 28.539932994837685 -7.029974173842366, 28.659509229970325 -6.734618561215508 M28.19042114880834 -7.893275190886684 C28.293730241988023 -7.638099733387435, 28.3970393351677 -7.382924275888185, 28.659509229970325 -6.734618561215508 M28.659509229970325 -6.734618561215508 C28.816358785627553 -6.262212690158844, 28.97320834128478 -5.78980681910218, 29.05339813421488 -5.548287939305138 M28.659509229970325 -6.734618561215508 C28.795175760255585 -6.326012587522463, 28.93084229054084 -5.917406613829417, 29.05339813421488 -5.548287939305138 M29.05339813421488 -5.548287939305138 C29.14021407160604 -5.217221143767376, 29.227030008997197 -4.8861543482296135, 29.37046928754556 -4.339158212148133 M29.05339813421488 -5.548287939305138 C29.162780697777272 -5.131164817738808, 29.272163261339667 -4.714041696172479, 29.37046928754556 -4.339158212148133 M29.37046928754556 -4.339158212148133 C29.4344997458868 -4.010375341408039, 29.498530204228036 -3.6815924706679466, 29.609419776581777 -3.1121979531509023 M29.37046928754556 -4.339158212148133 C29.433643946764445 -4.014769689028116, 29.49681860598333 -3.6903811659080987, 29.609419776581777 -3.1121979531509023 M29.609419776581777 -3.1121979531509023 C29.657252698403425 -2.741215257180995, 29.705085620225073 -2.3702325612110875, 29.769267702509367 -1.872449005199798 M29.609419776581777 -3.1121979531509023 C29.661586974835412 -2.7075994650741984, 29.713754173089047 -2.3030009769974944, 29.769267702509367 -1.872449005199798 M29.769267702509367 -1.872449005199798 C29.80117113959481 -1.375527220603072, 29.833074576680257 -0.8786054360063461, 29.849356215913414 -0.6250057626472757 M29.769267702509367 -1.872449005199798 C29.79015915841963 -1.5470477161177718, 29.81105061432989 -1.2216464270357457, 29.849356215913414 -0.6250057626472757 M29.849356215913414 -0.6250057626472757 C29.849356215913414 -0.37036568165900186, 29.849356215913414 -0.11572560067072801, 29.849356215913414 0.625005762647271 M29.849356215913414 -0.6250057626472757 C29.849356215913414 -0.14944692349423788, 29.849356215913414 0.32611191565879993, 29.849356215913414 0.625005762647271 M29.849356215913414 0.625005762647271 C29.828479912137386 0.9501710450080114, 29.807603608361358 1.275336327368752, 29.769267702509367 1.8724490051997846 M29.849356215913414 0.625005762647271 C29.82653222393941 0.9805078608371224, 29.803708231965405 1.3360099590269736, 29.769267702509367 1.8724490051997846 M29.769267702509367 1.8724490051997846 C29.722013724666358 2.2389415259968026, 29.674759746823344 2.605434046793821, 29.609419776581777 3.1121979531508885 M29.769267702509367 1.8724490051997846 C29.710068475993733 2.3315865158455145, 29.6508692494781 2.7907240264912447, 29.609419776581777 3.1121979531508885 M29.609419776581777 3.1121979531508885 C29.530347710311236 3.5182163015629904, 29.4512756440407 3.9242346499750917, 29.37046928754556 4.339158212148129 M29.609419776581777 3.1121979531508885 C29.553266389453874 3.4005337280301005, 29.49711300232597 3.6888695029093124, 29.37046928754556 4.339158212148129 M29.37046928754556 4.339158212148129 C29.257578412292894 4.769660046701384, 29.144687537040223 5.20016188125464, 29.053398134214884 5.548287939305125 M29.37046928754556 4.339158212148129 C29.264644435958793 4.7427142360292756, 29.158819584372026 5.146270259910423, 29.053398134214884 5.548287939305125 M29.053398134214884 5.548287939305125 C28.948560246139653 5.864042954538652, 28.843722358064426 6.17979796977218, 28.65950922997033 6.734618561215495 M29.053398134214884 5.548287939305125 C28.94728476052746 5.86788451398155, 28.841171386840035 6.187481088657974, 28.65950922997033 6.734618561215495 M28.65950922997033 6.734618561215495 C28.51852489301018 7.082852599253784, 28.377540556050036 7.431086637292074, 28.190421148808344 7.893275190886679 M28.65950922997033 6.734618561215495 C28.506210978588133 7.113268205949586, 28.352912727205936 7.491917850683677, 28.190421148808344 7.893275190886679 M28.190421148808344 7.893275190886679 C27.990118589088073 8.30920774193403, 27.789816029367802 8.72514029298138, 27.648061474273504 9.019496659696284 M28.190421148808344 7.893275190886679 C28.02090420605507 8.24528074959538, 27.851387263301795 8.597286308304083, 27.648061474273504 9.019496659696284 M27.648061474273504 9.019496659696284 C27.456749496119222 9.359190449347675, 27.265437517964937 9.698884238999067, 27.03465887860425 10.108655082055236 M27.648061474273504 9.019496659696284 C27.482483736148048 9.313496700302121, 27.31690599802259 9.607496740907958, 27.03465887860425 10.108655082055236 M27.03465887860425 10.108655082055236 C26.84897030954952 10.393922588485763, 26.66328174049479 10.679190094916288, 26.35273396464064 11.156274872382301 M27.03465887860425 10.108655082055236 C26.845474188360317 10.399293569472368, 26.656289498116383 10.6899320568895, 26.35273396464064 11.156274872382301 M26.35273396464064 11.156274872382301 C26.068121427913837 11.53762974286072, 25.783508891187033 11.918984613339138, 25.605088908126582 12.158051136245302 M26.35273396464064 11.156274872382301 C26.169206785091564 11.402184573308054, 25.985679605542483 11.648094274233808, 25.605088908126582 12.158051136245302 M25.605088908126582 12.158051136245302 C25.44189873010968 12.349743605128136, 25.27870855209278 12.54143607401097, 24.79479594296866 13.10986736009567 M25.605088908126582 12.158051136245302 C25.358441586556715 12.44777711479145, 25.111794264986845 12.737503093337597, 24.79479594296866 13.10986736009567 M24.79479594296866 13.10986736009567 C24.618827010280857 13.291569730413881, 24.44285807759306 13.473272100732093, 23.92518473676799 14.007812326905684 M24.79479594296866 13.10986736009567 C24.492960038294946 13.421537712859921, 24.19112413362123 13.733208065624172, 23.92518473676799 14.007812326905684 M23.92518473676799 14.007812326905684 C23.626536350765424 14.279036889269928, 23.327887964762855 14.55026145163417, 22.999828708501887 14.848196188198111 M23.92518473676799 14.007812326905684 C23.61393971697037 14.290476818793927, 23.302694697172754 14.57314131068217, 22.999828708501887 14.848196188198111 M22.999828708501887 14.848196188198111 C22.75699924924435 15.041846219992703, 22.51416978998681 15.235496251787294, 22.022530344578715 15.627565626425152 M22.999828708501887 14.848196188198111 C22.768341759954023 15.032800869538622, 22.536854811406158 15.217405550879134, 22.022530344578715 15.627565626425152 M22.022530344578715 15.627565626425152 C21.649760113824755 15.88759400243591, 21.27698988307079 16.147622378446666, 20.997305573605708 16.34271804539089 M22.022530344578715 15.627565626425152 C21.78624163172405 15.792390403739045, 21.549952918869387 15.95721518105294, 20.997305573605708 16.34271804539089 M20.997305573605708 16.34271804539089 C20.756782145021432 16.488524761271236, 20.51625871643716 16.63433147715158, 19.928367264076787 16.990714730406093 M20.997305573605708 16.34271804539089 C20.591115609147277 16.58895278888278, 20.184925644688846 16.83518753237467, 19.928367264076787 16.990714730406093 M19.928367264076787 16.990714730406093 C19.577959620329466 17.173522173702263, 19.22755197658215 17.35632961699843, 18.820107912792388 17.56889292409717 M19.928367264076787 16.990714730406093 C19.627674479733017 17.14758596339532, 19.326981695389243 17.304457196384543, 18.820107912792388 17.56889292409717 M18.820107912792388 17.56889292409717 C18.372545577622986 17.767015493411705, 17.924983242453585 17.96513806272624, 17.677081595147804 18.07487676824742 M18.820107912792388 17.56889292409717 C18.584972623786935 17.672980341499358, 18.349837334781487 17.77706775890155, 17.677081595147804 18.07487676824742 M17.677081595147804 18.07487676824742 C17.31913048824717 18.206606084450613, 16.961179381346536 18.338335400653808, 16.503985251460616 18.506587066708033 M17.677081595147804 18.07487676824742 C17.237790110031284 18.236540095536274, 16.798498624914764 18.398203422825127, 16.503985251460616 18.506587066708033 M16.503985251460616 18.506587066708033 C16.142203506459484 18.61396198959324, 15.780421761458355 18.721336912478442, 15.305639386235413 18.86224982926107 M16.503985251460616 18.506587066708033 C16.100735268337424 18.626269544996642, 15.697485285214228 18.745952023285252, 15.305639386235413 18.86224982926107 M15.305639386235413 18.86224982926107 C14.863352808580395 18.96319885442118, 14.421066230925378 19.064147879581288, 14.086968259676766 19.140403561325773 M15.305639386235413 18.86224982926107 C14.947758252606867 18.943933862619136, 14.589877118978322 19.0256178959772, 14.086968259676766 19.140403561325773 M14.086968259676766 19.140403561325773 C13.63365420781355 19.21369186172804, 13.180340155950333 19.286980162130313, 12.852979652847878 19.3399052695533 M14.086968259676766 19.140403561325773 C13.740188207951725 19.196468270769213, 13.393408156226684 19.25253298021265, 12.852979652847878 19.3399052695533 M12.852979652847878 19.3399052695533 C12.52639497008891 19.37141050112351, 12.199810287329944 19.40291573269372, 11.6087442896239 19.45993515863156 M12.852979652847878 19.3399052695533 C12.396828226078814 19.383909649091358, 11.940676799309747 19.427914028629413, 11.6087442896239 19.45993515863156 M11.6087442896239 19.45993515863156 C11.301022547041262 19.469803195972148, 10.993300804458626 19.479671233312736, 10.359375000000004 19.5 M11.6087442896239 19.45993515863156 C11.317945995789879 19.469260493910273, 11.02714770195586 19.47858582918899, 10.359375000000004 19.5 M10.359375000000004 19.5 C10.359375000000002 19.5, 10.359375000000002 19.5, 10.359375 19.5 M10.359375000000004 19.5 C10.359375000000002 19.5, 10.359375000000002 19.5, 10.359375 19.5 M10.359375 19.5 C5.630083808727043 19.5, 0.9007926174540852 19.5, -10.359374999999996 19.5 M10.359375 19.5 C4.1241023955137175 19.5, -2.111170208972565 19.5, -10.359374999999996 19.5 M-10.359374999999996 19.5 C-10.773206762241282 19.486729220859583, -11.187038524482567 19.473458441719163, -11.608744289623893 19.45993515863156 M-10.359374999999996 19.5 C-10.794781660165187 19.486037355876153, -11.23018832033038 19.472074711752306, -11.608744289623893 19.45993515863156 M-11.608744289623893 19.45993515863156 C-11.967268536764841 19.425348755698366, -12.325792783905788 19.39076235276517, -12.852979652847871 19.3399052695533 M-11.608744289623893 19.45993515863156 C-12.023659011468933 19.41990883442313, -12.438573733313973 19.3798825102147, -12.852979652847871 19.3399052695533 M-12.852979652847871 19.3399052695533 C-13.277498047009738 19.271272427774523, -13.702016441171605 19.202639585995747, -14.086968259676759 19.140403561325773 M-12.852979652847871 19.3399052695533 C-13.314760425035486 19.265248135469378, -13.776541197223098 19.190591001385457, -14.086968259676759 19.140403561325773 M-14.086968259676759 19.140403561325773 C-14.481716660461812 19.050304814820638, -14.876465061246865 18.9602060683155, -15.305639386235388 18.862249829261074 M-14.086968259676759 19.140403561325773 C-14.404212041537972 19.067994738325098, -14.721455823399188 18.995585915324426, -15.305639386235388 18.862249829261074 M-15.305639386235388 18.862249829261074 C-15.554743201522017 18.78831712445661, -15.803847016808646 18.714384419652152, -16.50398525146059 18.506587066708043 M-15.305639386235388 18.862249829261074 C-15.749904251112554 18.730394349359393, -16.19416911598972 18.598538869457716, -16.50398525146059 18.506587066708043 M-16.50398525146059 18.506587066708043 C-16.77202284299623 18.407946755310594, -17.04006043453187 18.309306443913144, -17.677081595147797 18.074876768247425 M-16.50398525146059 18.506587066708043 C-16.911086184903034 18.35677016000145, -17.318187118345477 18.206953253294852, -17.677081595147797 18.074876768247425 M-17.677081595147797 18.074876768247425 C-17.959443016816167 17.949883742828813, -18.241804438484536 17.824890717410202, -18.82010791279238 17.568892924097174 M-17.677081595147797 18.074876768247425 C-18.012069906239745 17.926587380002204, -18.34705821733169 17.778297991756983, -18.82010791279238 17.568892924097174 M-18.82010791279238 17.568892924097174 C-19.220499854162206 17.360008704747813, -19.62089179553203 17.151124485398455, -19.92836726407678 16.990714730406097 M-18.82010791279238 17.568892924097174 C-19.186691644773834 17.377646425930536, -19.55327537675529 17.186399927763897, -19.92836726407678 16.990714730406097 M-19.92836726407678 16.990714730406097 C-20.283536808710377 16.77540886524129, -20.638706353343974 16.560103000076484, -20.997305573605686 16.3427180453909 M-19.92836726407678 16.990714730406097 C-20.30122940667025 16.764683508384767, -20.67409154926372 16.538652286363437, -20.997305573605686 16.3427180453909 M-20.997305573605686 16.3427180453909 C-21.253748642706626 16.163834461627626, -21.51019171180757 15.984950877864351, -22.022530344578712 15.627565626425156 M-20.997305573605686 16.3427180453909 C-21.21349282285367 16.19191517891069, -21.429680072101657 16.041112312430485, -22.022530344578712 15.627565626425156 M-22.022530344578712 15.627565626425156 C-22.24638230030046 15.44904964868778, -22.47023425602221 15.270533670950403, -22.99982870850187 14.848196188198125 M-22.022530344578712 15.627565626425156 C-22.366115630683833 15.353565503944774, -22.709700916788954 15.079565381464393, -22.99982870850187 14.848196188198125 M-22.99982870850187 14.848196188198125 C-23.20221570072096 14.664393676731125, -23.404602692940045 14.480591165264125, -23.925184736767974 14.007812326905697 M-22.99982870850187 14.848196188198125 C-23.20803062448092 14.65911271682678, -23.41623254045997 14.470029245455434, -23.925184736767974 14.007812326905697 M-23.925184736767974 14.007812326905697 C-24.26624460010024 13.655640016479596, -24.607304463432506 13.303467706053498, -24.794795942968655 13.109867360095677 M-23.925184736767974 14.007812326905697 C-24.23743964121444 13.685383501460292, -24.549694545660905 13.362954676014889, -24.794795942968655 13.109867360095677 M-24.794795942968655 13.109867360095677 C-25.00158967404653 12.866955676674964, -25.208383405124405 12.62404399325425, -25.60508890812658 12.158051136245307 M-24.794795942968655 13.109867360095677 C-25.10543915570823 12.744968166312226, -25.416082368447803 12.380068972528775, -25.60508890812658 12.158051136245307 M-25.60508890812658 12.158051136245307 C-25.777258914721035 11.927359012419005, -25.949428921315494 11.696666888592706, -26.352733964640635 11.156274872382316 M-25.60508890812658 12.158051136245307 C-25.870389929532394 11.802571936981776, -26.135690950938212 11.447092737718245, -26.352733964640635 11.156274872382316 M-26.352733964640635 11.156274872382316 C-26.620873186135313 10.744341022703805, -26.88901240762999 10.332407173025294, -27.034658878604244 10.108655082055249 M-26.352733964640635 11.156274872382316 C-26.52271082945066 10.895144762854986, -26.692687694260687 10.634014653327657, -27.034658878604244 10.108655082055249 M-27.034658878604244 10.108655082055249 C-27.278182904133935 9.676253515245714, -27.52170692966363 9.243851948436179, -27.6480614742735 9.019496659696289 M-27.034658878604244 10.108655082055249 C-27.18551311545636 9.840798108876404, -27.33636735230847 9.572941135697562, -27.6480614742735 9.019496659696289 M-27.6480614742735 9.019496659696289 C-27.830823831062215 8.639986715336535, -28.01358618785093 8.260476770976782, -28.19042114880834 7.893275190886686 M-27.6480614742735 9.019496659696289 C-27.840041176858442 8.620846699571066, -28.032020879443383 8.222196739445845, -28.19042114880834 7.893275190886686 M-28.19042114880834 7.893275190886686 C-28.289396621391287 7.648803860046222, -28.388372093974237 7.404332529205758, -28.659509229970325 6.73461856121551 M-28.19042114880834 7.893275190886686 C-28.33150831869925 7.544787153521281, -28.472595488590155 7.196299116155877, -28.659509229970325 6.73461856121551 M-28.659509229970325 6.73461856121551 C-28.805914286541345 6.293669857301566, -28.95231934311236 5.852721153387622, -29.05339813421488 5.5482879393051325 M-28.659509229970325 6.73461856121551 C-28.739775286530676 6.492869987515106, -28.82004134309103 6.251121413814701, -29.05339813421488 5.5482879393051325 M-29.05339813421488 5.5482879393051325 C-29.11725209723363 5.304785103832001, -29.181106060252382 5.06128226835887, -29.370469287545557 4.339158212148136 M-29.05339813421488 5.5482879393051325 C-29.14346531620315 5.204822739020262, -29.23353249819142 4.861357538735391, -29.370469287545557 4.339158212148136 M-29.370469287545557 4.339158212148136 C-29.437461081309213 3.9951695098923876, -29.50445287507287 3.6511808076366394, -29.609419776581777 3.112197953150904 M-29.370469287545557 4.339158212148136 C-29.42686529261 4.049576645442116, -29.483261297674442 3.7599950787360954, -29.609419776581777 3.112197953150904 M-29.609419776581777 3.112197953150904 C-29.669226326489664 2.6483501622044168, -29.729032876397554 2.184502371257929, -29.769267702509364 1.872449005199809 M-29.609419776581777 3.112197953150904 C-29.647179612920933 2.8193401190274923, -29.684939449260085 2.5264822849040804, -29.769267702509364 1.872449005199809 M-29.769267702509364 1.872449005199809 C-29.795873469937007 1.4580427017253677, -29.822479237364647 1.0436363982509262, -29.849356215913414 0.6250057626472781 M-29.769267702509364 1.872449005199809 C-29.791132545741164 1.531886422880718, -29.812997388972967 1.191323840561627, -29.849356215913414 0.6250057626472781 M-29.849356215913414 0.6250057626472781 C-29.849356215913414 0.12750311049417612, -29.849356215913414 -0.3699995416589259, -29.849356215913414 -0.6250057626472687 M-29.849356215913414 0.6250057626472781 C-29.849356215913414 0.3347135127734679, -29.849356215913414 0.04442126289965764, -29.849356215913414 -0.6250057626472687 M-29.849356215913414 -0.6250057626472687 C-29.82281524095119 -1.038402871173278, -29.79627426598897 -1.4517999796992873, -29.769267702509367 -1.8724490051997822 M-29.849356215913414 -0.6250057626472687 C-29.82954898947556 -0.9335193025222597, -29.809741763037707 -1.2420328423972506, -29.769267702509367 -1.8724490051997822 M-29.769267702509367 -1.8724490051997822 C-29.710795837839388 -2.325945241004457, -29.65232397316941 -2.779441476809133, -29.609419776581777 -3.112197953150895 M-29.769267702509367 -1.8724490051997822 C-29.726448379722367 -2.204547217104068, -29.68362905693537 -2.5366454290083533, -29.609419776581777 -3.112197953150895 M-29.609419776581777 -3.112197953150895 C-29.549368631590887 -3.4205478908651346, -29.489317486599994 -3.7288978285793744, -29.37046928754556 -4.339158212148126 M-29.609419776581777 -3.112197953150895 C-29.55584224683335 -3.3873072447941457, -29.502264717084923 -3.662416536437396, -29.37046928754556 -4.339158212148126 M-29.37046928754556 -4.339158212148126 C-29.261077803326547 -4.756315352044397, -29.15168631910753 -5.173472491940668, -29.053398134214884 -5.548287939305123 M-29.37046928754556 -4.339158212148126 C-29.25484417986374 -4.780086859977585, -29.139219072181913 -5.221015507807044, -29.053398134214884 -5.548287939305123 M-29.053398134214884 -5.548287939305123 C-28.90346559070047 -5.999860871863852, -28.753533047186057 -6.451433804422582, -28.659509229970332 -6.734618561215485 M-29.053398134214884 -5.548287939305123 C-28.965083581071568 -5.81427730235963, -28.87676902792825 -6.080266665414138, -28.659509229970332 -6.734618561215485 M-28.659509229970332 -6.734618561215485 C-28.503024879529995 -7.121137932222215, -28.34654052908966 -7.507657303228946, -28.190421148808344 -7.893275190886676 M-28.659509229970332 -6.734618561215485 C-28.538143314154514 -7.034394719730912, -28.416777398338695 -7.334170878246338, -28.190421148808344 -7.893275190886676 M-28.190421148808344 -7.893275190886676 C-28.055312418071576 -8.173831361125307, -27.92020368733481 -8.454387531363938, -27.648061474273504 -9.019496659696282 M-28.190421148808344 -7.893275190886676 C-28.015027693297863 -8.257483454072945, -27.839634237787386 -8.621691717259214, -27.648061474273504 -9.019496659696282 M-27.648061474273504 -9.019496659696282 C-27.49675017619093 -9.288165191372276, -27.345438878108357 -9.556833723048271, -27.034658878604247 -10.108655082055243 M-27.648061474273504 -9.019496659696282 C-27.423398887162886 -9.41840783266501, -27.198736300052264 -9.817319005633736, -27.034658878604247 -10.108655082055243 M-27.034658878604247 -10.108655082055243 C-26.767355412100116 -10.519304987636641, -26.50005194559598 -10.929954893218037, -26.35273396464064 -11.156274872382308 M-27.034658878604247 -10.108655082055243 C-26.80673702431572 -10.458804255829891, -26.57881517002719 -10.80895342960454, -26.35273396464064 -11.156274872382308 M-26.35273396464064 -11.156274872382308 C-26.074978088641437 -11.528442442140387, -25.797222212642232 -11.900610011898465, -25.605088908126586 -12.158051136245302 M-26.35273396464064 -11.156274872382308 C-26.056485094337894 -11.553221369760694, -25.760236224035143 -11.950167867139081, -25.605088908126586 -12.158051136245302 M-25.605088908126586 -12.158051136245302 C-25.287652839928914 -12.530929604574261, -24.970216771731238 -12.90380807290322, -24.794795942968662 -13.10986736009567 M-25.605088908126586 -12.158051136245302 C-25.376055510939096 -12.427086796951217, -25.147022113751607 -12.696122457657133, -24.794795942968662 -13.10986736009567 M-24.794795942968662 -13.10986736009567 C-24.552317491637037 -13.36024626894666, -24.309839040305413 -13.610625177797653, -23.925184736767996 -14.007812326905677 M-24.794795942968662 -13.10986736009567 C-24.536958625535878 -13.376105559182468, -24.279121308103093 -13.642343758269265, -23.925184736767996 -14.007812326905677 M-23.925184736767996 -14.007812326905677 C-23.625087604353357 -14.280352602429634, -23.32499047193872 -14.552892877953592, -22.999828708501887 -14.848196188198107 M-23.925184736767996 -14.007812326905677 C-23.577004386047022 -14.324020509083207, -23.22882403532605 -14.640228691260736, -22.999828708501887 -14.848196188198107 M-22.999828708501887 -14.848196188198107 C-22.69850679658694 -15.088492394437447, -22.397184884671994 -15.328788600676786, -22.02253034457872 -15.627565626425149 M-22.999828708501887 -14.848196188198107 C-22.70912337416524 -15.080025956337748, -22.41841803982859 -15.311855724477386, -22.02253034457872 -15.627565626425149 M-22.02253034457872 -15.627565626425149 C-21.625850916837063 -15.904272023242067, -21.229171489095403 -16.180978420058985, -20.99730557360571 -16.342718045390885 M-22.02253034457872 -15.627565626425149 C-21.76381250017366 -15.80803599496714, -21.505094655768602 -15.988506363509133, -20.99730557360571 -16.342718045390885 M-20.99730557360571 -16.342718045390885 C-20.68213197574335 -16.533778132580697, -20.366958377880987 -16.72483821977051, -19.92836726407679 -16.99071473040609 M-20.99730557360571 -16.342718045390885 C-20.777413562334967 -16.476017874852104, -20.557521551064223 -16.609317704313323, -19.92836726407679 -16.99071473040609 M-19.92836726407679 -16.99071473040609 C-19.67526836701698 -17.122756262884614, -19.42216946995717 -17.254797795363135, -18.820107912792388 -17.56889292409717 M-19.92836726407679 -16.99071473040609 C-19.691653811540824 -17.114207986971902, -19.45494035900486 -17.23770124353771, -18.820107912792388 -17.56889292409717 M-18.820107912792388 -17.56889292409717 C-18.429037822109706 -17.742008052560326, -18.03796773142702 -17.915123181023485, -17.677081595147804 -18.07487676824742 M-18.820107912792388 -17.56889292409717 C-18.5904917341603 -17.670537195055662, -18.360875555528214 -17.772181466014157, -17.677081595147804 -18.07487676824742 M-17.677081595147804 -18.07487676824742 C-17.291944374868386 -18.216610825479684, -16.90680715458897 -18.358344882711947, -16.50398525146062 -18.506587066708033 M-17.677081595147804 -18.07487676824742 C-17.41775511692181 -18.170311309422274, -17.158428638695817 -18.265745850597124, -16.50398525146062 -18.506587066708033 M-16.50398525146062 -18.506587066708033 C-16.05117127972038 -18.640979876651496, -15.598357307980141 -18.775372686594956, -15.305639386235413 -18.862249829261067 M-16.50398525146062 -18.506587066708033 C-16.16070576261551 -18.608470617086454, -15.8174262737704 -18.710354167464875, -15.305639386235413 -18.862249829261067 M-15.305639386235413 -18.862249829261067 C-14.864072376967302 -18.963034617632488, -14.422505367699191 -19.063819406003912, -14.086968259676768 -19.140403561325773 M-15.305639386235413 -18.862249829261067 C-14.8940665574081 -18.956188641677198, -14.48249372858079 -19.050127454093325, -14.086968259676768 -19.140403561325773 M-14.086968259676768 -19.140403561325773 C-13.826514360722184 -19.182511727858596, -13.5660604617676 -19.22461989439142, -12.85297965284788 -19.3399052695533 M-14.086968259676768 -19.140403561325773 C-13.67460790133065 -19.207070786160834, -13.262247542984529 -19.273738010995896, -12.85297965284788 -19.3399052695533 M-12.85297965284788 -19.3399052695533 C-12.496797561515578 -19.37426572753249, -12.140615470183276 -19.40862618551168, -11.608744289623903 -19.45993515863156 M-12.85297965284788 -19.3399052695533 C-12.400831895372411 -19.38352341992972, -11.94868413789694 -19.42714157030614, -11.608744289623903 -19.45993515863156 M-11.608744289623903 -19.45993515863156 C-11.122635072997781 -19.47552373505457, -10.636525856371657 -19.491112311477576, -10.359375000000005 -19.5 M-11.608744289623903 -19.45993515863156 C-11.23244033627292 -19.472002493984313, -10.856136382921934 -19.48406982933707, -10.359375000000005 -19.5 M-10.359375000000005 -19.5 C-10.359375000000004 -19.5, -10.359375000000002 -19.5, -10.359375 -19.5 M-10.359375000000005 -19.5 C-10.359375000000004 -19.5, -10.359375000000004 -19.5, -10.359375 -19.5" stroke="#9370DB" stroke-width="1.3" fill="none" stroke-dasharray="0 0" style=""/></g><g class="label" style="" transform="translate(-17.484375, -12)"><rect/><foreignObject width="34.96875" height="24"><div xmlns="http://www.w3.org/1999/xhtml" style="display: table-cell; white-space: nowrap; line-height: 1.5; max-width: 200px; text-align: center;"><span class="nodeLabel"><p>done</p></span></div></foreignObject></g></g></g></g></g><defs><filter id="my-svg-drop-shadow" height="130%" width="130%"><feDropShadow dx="4" dy="4" stdDeviation="0" flood-opacity="0.06" flood-color="#000000"/></filter></defs><defs><filter id="my-svg-drop-shadow-small" height="150%" width="150%"><feDropShadow dx="2" dy="2" stdDeviation="0" flood-opacity="0.06" flood-color="#000000"/></filter></defs></svg>